<?xml version="1.0" encoding="UTF-8"?>
<!DOCTYPE svg PUBLIC "-//W3C//DTD SVG 1.1//EN" "http://www.w3.org/Graphics/SVG/1.1/DTD/svg11.dtd">
<!-- Creator: CorelDRAW X8 -->
<svg xmlns="http://www.w3.org/2000/svg" xml:space="preserve" width="250px" height="250px" version="1.1" style="shape-rendering:geometricPrecision; text-rendering:geometricPrecision; image-rendering:optimizeQuality; fill-rule:evenodd; clip-rule:evenodd"
viewBox="0 0 250 250"
 xmlns:xlink="http://www.w3.org/1999/xlink">
 <defs>
  <style type="text/css">
   <![CDATA[
    .fil0 {fill:#EBECEC}
    .fil1 {fill:#B1413F}
   ]]>
  </style>
 </defs>
 <g id="Layer_x0020_1">
  <metadata id="CorelCorpID_0Corel-Layer"/>
  <g id="_2116802289968">
   <path class="fil0" d="M23 65l0 23 15 0 0 65 -17 0 0 23 61 0 0 -23 -17 0 0 -88 -42 0zm116 -2c-22,0 -41,14 -41,38l0 39c0,20 13,33 31,37 -1,-2 -1,-4 -1,-6l0 -23c-2,-2 -3,-5 -3,-9l0 -37c0,-8 4,-12 10,-13 3,-3 8,-5 12,-5l30 0c-6,-13 -21,-21 -38,-21z"/>
   <path class="fil1" d="M219 122c-2,-2 -7,-2 -10,0 -1,1 -6,7 -7,7l0 -18c0,-2 -1,-4 -2,-5l-7 -7c-1,-2 -3,-2 -5,-2l-41 0c-4,0 -7,3 -7,7l0 67c0,4 3,7 7,7l48 0c4,0 7,-3 7,-7l0 -21 17 -18c3,-2 3,-7 0,-10zm-34 42l-14 0c-1,0 -2,1 -2,2 0,1 1,3 2,3l14 0c2,0 3,-2 3,-3 0,-1 -1,-2 -3,-2zm-9 -15l-24 0c-1,0 -2,1 -2,3 0,1 1,2 2,2l24 0c1,0 2,-1 2,-2 0,-2 -1,-3 -2,-3zm0 -9l-24 0c-1,0 -2,1 -2,2 0,1 1,2 2,2l24 0c1,0 2,-1 2,-2 0,-1 -1,-2 -2,-2zm0 -10l-24 0c-1,0 -2,1 -2,2 0,2 1,3 2,3l24 0c1,0 2,-1 2,-3 0,-1 -1,-2 -2,-2zm9 -9l-33 0c-1,0 -2,1 -2,2 0,1 1,2 2,2l33 0c2,0 3,-1 3,-2 0,-1 -1,-2 -3,-2zm3 -20c0,0 1,0 2,1l7 7c0,1 0,2 0,2l-9 0 0 -10zm9 70c0,1 -1,2 -2,2l-48 0c-1,0 -2,-1 -2,-2l0 -67c0,-1 1,-3 2,-3l36 0 0 12c0,2 1,3 2,3l12 0 0 18c0,0 -7,7 -7,7l-3 4c0,0 0,0 -1,1l-3 10c0,1 0,1 1,2 0,1 1,1 2,1l10 -4c1,0 1,0 1,0l0 -1 0 17zm-5 -25l3 4 -1 1 -5 2 2 -5 1 -2zm7 0l-4 -3c2,-2 10,-10 12,-11l3 3 -11 11zm17 -17l-2 3 -4 -4 3 -2c1,-1 2,-1 3,0 1,1 1,2 0,3z"/>
  </g>
 </g>
</svg>
