<?xml version="1.0" encoding="UTF-8"?>
<!DOCTYPE svg PUBLIC "-//W3C//DTD SVG 1.1//EN" "http://www.w3.org/Graphics/SVG/1.1/DTD/svg11.dtd">
<!-- Creator: CorelDRAW X8 -->
<svg xmlns="http://www.w3.org/2000/svg" xml:space="preserve" width="250px" height="250px" version="1.1" style="shape-rendering:geometricPrecision; text-rendering:geometricPrecision; image-rendering:optimizeQuality; fill-rule:evenodd; clip-rule:evenodd"
viewBox="0 0 250 250"
 xmlns:xlink="http://www.w3.org/1999/xlink">
 <defs>
  <style type="text/css">
   <![CDATA[
    .fil0 {fill:#EBECEC}
    .fil1 {fill:#B1413F}
   ]]>
  </style>
 </defs>
 <g id="Layer_x0020_1">
  <metadata id="CorelCorpID_0Corel-Layer"/>
  <path class="fil0" d="M27 52l0 26 17 0 0 75 -19 0 0 27 32 0c0,-2 0,-4 0,-6 -1,-18 -1,-36 -1,-54l6 0c3,-8 7,-13 14,-16l0 -52 -49 0zm78 0l0 26 17 0 0 23c11,4 22,12 30,19l1 0 0 -9c-1,-3 -1,-6 0,-9 0,-1 0,-2 1,-2l0 -48 -49 0z"/>
  <path class="fil1" d="M223 174c0,0 0,0 0,0l0 -14c0,-7 -4,-12 -11,-14l-3 0 0 -10c0,-12 -8,-23 -19,-26l-20 -6c-2,0 -3,1 -3,2 -1,1 0,2 0,2l0 53 -12 0c0,-1 0,-1 0,-2 0,-1 0,-2 0,-3 1,0 3,0 5,0l2 0 0 -2c0,-17 -8,-20 -15,-20 -1,-1 -1,-1 -2,-2 -11,-8 -25,-19 -37,-19l-10 0c-16,0 -24,6 -25,21l-3 0 0 14c0,4 3,7 7,8 0,1 0,2 0,3 0,1 0,1 0,2l-9 0 1 13c0,8 6,15 13,15l4 0c2,5 8,9 14,9 6,0 12,-4 14,-9l66 0c2,5 8,9 14,9 6,0 12,-4 14,-9l10 0c4,0 7,-5 7,-8l0 -2c0,-3 -1,-4 -2,-5zm-33 -32c-2,-1 -3,-4 -4,-7l18 0c0,1 0,1 0,1l0 8 -14 -2zm13 -11l-22 0 0 2c0,6 2,13 9,14l15 2c0,0 1,1 1,1l5 1c4,1 8,4 8,9l0 12c0,0 0,0 0,0 0,0 0,0 0,0l-15 0c-2,-2 -6,-4 -10,-4 -4,0 -7,2 -10,4l-12 0 0 -62 16 5c8,2 14,8 15,16zm-66 30c0,-1 -1,-1 -1,-2 0,-4 3,-7 7,-7 4,0 7,3 7,7 0,1 0,1 0,2l-13 0zm-37 -5c6,0 13,0 19,0 5,0 9,0 13,0 0,1 0,2 0,3 0,1 0,1 0,2l-32 0c0,-1 0,-1 0,-2 0,-1 0,-2 0,-3zm39 -22l-25 0 0 -15c8,2 18,9 25,15zm-31 -16c0,0 1,0 1,0l0 16 -18 0 0 -16c2,0 4,0 7,0l10 0zm-22 2l0 14 -8 0c1,-8 3,-12 8,-14zm-7 32c-2,0 -4,-2 -4,-4l0 -9 72 0c4,0 10,1 10,13 -1,0 -3,0 -5,0 -2,-3 -5,-5 -9,-5 -3,0 -7,2 -9,5 -5,0 -10,0 -15,0 -7,0 -14,0 -22,0 -2,-3 -5,-5 -9,-5 -3,0 -7,2 -9,5 0,0 0,0 0,0zm2 7c0,-4 4,-7 7,-7 4,0 7,3 7,7 0,1 0,1 0,2l-13 0c0,-1 -1,-1 -1,-2zm19 34c-6,0 -10,-4 -10,-10 0,-5 4,-10 10,-10 5,0 10,5 10,10 0,6 -5,10 -10,10zm15 -9c0,0 0,-1 0,-1 0,-8 -7,-15 -15,-15 -8,0 -15,7 -15,15 0,0 0,1 0,1l-3 0c-4,0 -8,-5 -8,-10l-1 -8 94 0 0 6 -44 0 1 5 57 0c-1,2 -2,4 -2,6 0,0 0,1 0,1l-64 0 0 0zm79 9c-5,0 -10,-4 -10,-10 0,-5 5,-10 10,-10 6,0 10,5 10,10 0,6 -4,10 -10,10zm26 -12c0,1 -1,3 -2,3l-9 0c0,0 0,-1 0,-1 0,-2 0,-4 -1,-6l11 0c0,0 1,0 1,1 0,0 0,0 0,1l0 2 0 0z"/>
 </g>
</svg>
