<?xml version="1.0" encoding="UTF-8"?>
<!DOCTYPE svg PUBLIC "-//W3C//DTD SVG 1.1//EN" "http://www.w3.org/Graphics/SVG/1.1/DTD/svg11.dtd">
<!-- Creator: CorelDRAW X8 -->
<svg xmlns="http://www.w3.org/2000/svg" xml:space="preserve" width="250px" height="250px" version="1.1" style="shape-rendering:geometricPrecision; text-rendering:geometricPrecision; image-rendering:optimizeQuality; fill-rule:evenodd; clip-rule:evenodd"
viewBox="0 0 250 250"
 xmlns:xlink="http://www.w3.org/1999/xlink">
 <defs>
  <style type="text/css">
   <![CDATA[
    .fil0 {fill:#EBECEC}
    .fil1 {fill:#B1413F}
   ]]>
  </style>
 </defs>
 <g id="Layer_x0020_1">
  <metadata id="CorelCorpID_0Corel-Layer"/>
  <g id="_2116808998432">
   <path class="fil0" d="M27 50l0 26 17 0 0 76 -19 0 0 27 71 0 0 -27 -20 0 0 -102 -49 0zm96 97l-19 27 0 5 26 0 0 -14c-5,-5 -7,-12 -7,-18zm67 -53c4,-24 -12,-47 -41,-46 -23,0 -42,14 -42,42l28 0c0,-9 6,-13 13,-13 12,0 12,9 10,17l32 0z"/>
   <path class="fil1" d="M222 203l-68 0c-2,0 -3,-1 -3,-3l0 -7c0,-2 1,-3 3,-3 2,0 3,1 3,3l0 3 61 0 0 -54 -23 0c-2,0 -4,-1 -4,-3l0 -24 -34 0 0 4c0,1 -1,3 -3,3 -2,0 -3,-2 -3,-3l0 -7c0,-2 1,-4 3,-4l40 0 1 0 0 0 0 0 0 0 0 0 0 0 0 0 0 0 0 0 0 0 0 0 0 0 0 0 0 0 0 0 0 0 0 0 0 0 0 0 0 0 0 0 0 0 0 0 0 0 0 0 0 0 0 0 0 0 0 0 0 0 0 0 0 1 0 0 0 0 1 0 0 0 0 0 0 0 0 0 0 0 0 0 0 0 0 0 0 0 0 0 0 0 0 0 0 0 0 0 0 0 0 0 0 0 0 0 0 0 0 0 0 0 0 0 0 0 0 0 0 0 0 0 0 0 0 0c1,0 1,0 1,0l27 27 0 0 0 0 0 1 0 0 0 0 0 0 0 0 0 0 0 0 0 0 0 0 0 0 0 0 0 0 0 0 0 0 0 0 0 0 0 0 0 0 0 0 0 0 0 0 1 0 0 0 0 0 0 0 0 0 0 0 0 0 0 0 0 0 0 0 0 0 0 0 0 0 0 0 0 0 0 0 0 0 0 0 0 1 0 0 0 0 0 0 0 0 0 0 0 0 0 0 0 0 0 0 0 0 0 0 0 0 0 0 0 0 0 0 0 0 0 0 0 0 0 0 0 0 0 0 0 0 0 0 0 0 0 0 0 0 0 0 0 0 0 0 0 0 0 0 0 0 0 0 0 0 0 0 0 0 0 0 0 1 0 0 0 0 0 0 0 0 0 0 0 0 0 0 0 0 0 0 0 0 0 0 0 61c0,2 -2,3 -3,3zm-14 -13l-13 0c-2,0 -4,-2 -4,-4 0,-2 2,-3 4,-3l13 0c2,0 3,1 3,3 0,2 -1,4 -3,4zm0 -21l-27 0c-2,0 -3,-1 -3,-3 0,-2 1,-4 3,-4l27 0c2,0 3,2 3,4 0,2 -1,3 -3,3zm0 -13l-27 0c-2,0 -3,-2 -3,-4 0,-2 1,-3 3,-3l27 0c2,0 3,1 3,3 0,2 -1,4 -3,4zm-47 27c-1,0 -2,-1 -3,-1l-4 -5 -4 5c-1,1 -3,1 -4,1 -1,-1 -2,-2 -2,-4l0 -20c-4,-3 -7,-8 -7,-13 0,-10 8,-17 17,-17 9,0 17,7 17,17 0,5 -3,10 -7,13l0 20c0,2 -1,3 -2,4 0,0 -1,0 -1,0zm-12 -29c0,0 0,0 0,0 2,1 3,2 5,2 2,0 3,-1 5,-2 0,0 0,0 0,0l0 0c3,-2 5,-5 5,-8 0,-6 -4,-11 -10,-11 -6,0 -10,5 -10,11 0,3 2,6 5,8l0 0zm2 8l0 9 1 -1c1,-1 3,-1 4,0l1 1 0 -9c-1,0 -2,0 -3,0 -1,0 -2,0 -3,0zm62 -27l-15 -15 0 15 15 0z"/>
  </g>
 </g>
</svg>
