<?xml version="1.0" encoding="UTF-8"?>
<!DOCTYPE svg PUBLIC "-//W3C//DTD SVG 1.1//EN" "http://www.w3.org/Graphics/SVG/1.1/DTD/svg11.dtd">
<!-- Creator: CorelDRAW X8 -->
<svg xmlns="http://www.w3.org/2000/svg" xml:space="preserve" width="250px" height="250px" version="1.1" style="shape-rendering:geometricPrecision; text-rendering:geometricPrecision; image-rendering:optimizeQuality; fill-rule:evenodd; clip-rule:evenodd"
viewBox="0 0 250 250"
 xmlns:xlink="http://www.w3.org/1999/xlink">
 <defs>
  <style type="text/css">
   <![CDATA[
    .fil0 {fill:#EBECEC}
    .fil1 {fill:#B1413F;fill-rule:nonzero}
   ]]>
  </style>
 </defs>
 <g id="Layer_x0020_1">
  <metadata id="CorelCorpID_0Corel-Layer"/>
  <g id="_2116740120352">
   <path class="fil0" d="M85 110l-73 107 0 8 93 0c-2,-7 0,-15 6,-22 -8,-5 -12,-14 -12,-23l-8 0 9 -12c-7,-8 -9,-20 -5,-31 -8,-14 -3,-32 10,-40 0,-12 14,-28 33,-27 0,-1 1,-2 2,-3 -7,-24 -29,-42 -61,-41 -35,1 -63,21 -63,64l43 0c0,-14 8,-19 19,-19 25,0 17,25 7,39l0 0z"/>
   <path class="fil1" d="M238 162c0,4 -1,7 -3,10l-33 33c-5,5 -12,7 -18,7l-41 0 -11 10c-1,2 -3,2 -5,0 -1,-1 -1,-3 0,-5l12 -11c0,-1 1,-1 2,-1l43 0c4,0 9,-2 13,-5l33 -34c2,-2 1,-5 -1,-7 -1,-1 -4,-1 -6,0l-26 27 0 0c-3,2 -6,3 -9,3l-25 0c-2,0 -4,-1 -4,-3 0,-2 2,-4 4,-4l25 0c2,0 4,-1 5,-4 0,-2 -1,-5 -4,-5 0,0 -1,0 -1,0l-43 0c-5,0 -8,1 -11,4l-7 6c-1,2 -3,2 -5,1 -1,-2 -1,-4 0,-5 0,0 0,-1 0,-1l7 -6c4,-4 10,-7 16,-7l43 0c5,0 9,3 11,8l19 -19c4,-4 12,-4 17,0 2,2 3,5 3,8zm-29 -47l0 0c0,-3 -2,-5 -5,-5l-9 -4 -2 -10c0,-5 -5,-8 -10,-7 0,0 0,0 0,0l-10 3 -7 -7c-4,-4 -9,-3 -13,0 0,0 0,0 0,1l-6 7 -10 -1c-5,-1 -9,3 -10,7 0,1 0,1 0,1l-1 10 -8 5c-5,2 -6,7 -4,12 0,0 0,0 0,0l6 8 -5 9c-2,5 0,10 4,12 1,0 1,0 1,0l11 5c2,0 4,0 5,-2 1,-2 0,-4 -2,-5l-11 -4c-1,-1 -2,-2 -1,-2 0,0 0,0 0,0l5 -11c1,-1 0,-3 0,-4l-7 -10c0,-1 0,-2 1,-2 0,0 0,0 0,0l10 -6c2,0 2,-1 2,-3l1 -12c0,0 0,0 1,-1 0,0 0,0 1,0l12 2c1,0 2,-1 3,-2l8 -9c0,-1 1,-1 2,0 0,0 0,0 0,0l8 8c1,1 3,1 4,1l11 -3c1,0 2,0 2,1 0,0 0,0 0,0l3 12c0,1 1,2 2,3l11 4c1,1 1,1 1,2 0,0 0,0 0,0l-6 11c0,1 0,3 1,4l6 10c1,0 0,1 0,2 0,0 0,0 -1,0l-10 6c-2,0 -3,3 -2,4 1,2 3,3 5,2 0,0 0,0 0,0l11 -6c4,-2 6,-7 3,-12 0,0 0,0 0,0l-5 -9 4 -9c1,-2 1,-4 0,-7l0 1zm-47 36l0 0c-2,0 -5,-2 -6,-4 -1,-2 -3,-3 -5,-2 -1,0 -2,2 -1,4 2,5 7,9 12,9 8,0 14,-6 14,-13 0,-4 -2,-10 -13,-13l0 0c-7,-2 -7,-5 -7,-6 0,-4 3,-6 6,-6 3,0 5,2 6,4 1,2 3,3 5,3 2,-1 3,-3 2,-5 0,0 0,0 0,0 -2,-4 -5,-7 -9,-8l0 -3c0,-2 -2,-3 -4,-3 -2,0 -3,1 -3,3l0 3c-6,1 -10,6 -10,12 0,4 1,10 12,13l0 0c8,2 8,5 8,6 0,4 -4,6 -7,6l0 0z"/>
  </g>
 </g>
</svg>
