<?xml version="1.0" encoding="UTF-8"?>
<!DOCTYPE svg PUBLIC "-//W3C//DTD SVG 1.1//EN" "http://www.w3.org/Graphics/SVG/1.1/DTD/svg11.dtd">
<!-- Creator: CorelDRAW X8 -->
<svg xmlns="http://www.w3.org/2000/svg" xml:space="preserve" width="250px" height="250px" version="1.1" style="shape-rendering:geometricPrecision; text-rendering:geometricPrecision; image-rendering:optimizeQuality; fill-rule:evenodd; clip-rule:evenodd"
viewBox="0 0 250 250"
 xmlns:xlink="http://www.w3.org/1999/xlink">
 <defs>
  <style type="text/css">
   <![CDATA[
    .fil0 {fill:#EBECEC}
    .fil1 {fill:#B1413F}
   ]]>
  </style>
 </defs>
 <g id="Layer_x0020_1">
  <metadata id="CorelCorpID_0Corel-Layer"/>
  <g id="_2116792419024">
   <path class="fil0" d="M57 153l-35 0c0,20 11,36 26,45 8,4 16,7 28,7 6,0 11,-1 16,-2 -13,-8 -22,-21 -26,-36 -5,-3 -8,-7 -9,-14zm46 -57l26 -49 0 -5 -101 0 0 36 46 0 -21 44 0 6c5,-1 11,-1 17,0 6,-15 18,-26 33,-32z"/>
   <g>
    <path class="fil1" d="M120 131c-3,0 -6,3 -6,6 0,2 -2,4 -4,4 -2,0 -3,-2 -3,-4 0,-7 6,-13 13,-13l1 0 0 -1c0,-2 2,-4 4,-4 2,0 4,2 4,4l0 1c8,1 14,8 14,16 0,8 -6,15 -14,16l0 17 1 0c3,0 6,-3 6,-6 0,-2 2,-4 4,-4 2,0 3,2 3,4 0,7 -6,13 -13,13l-1 0 0 1c0,2 -2,4 -4,4 -2,0 -4,-2 -4,-4l0 -1c-8,0 -14,-7 -14,-16 0,-8 6,-15 14,-15l0 -18 -1 0zm9 17c4,0 7,-4 7,-8 0,-4 -3,-8 -7,-9l0 17zm-15 16c0,5 3,8 7,9l0 -17c-4,0 -7,4 -7,8z"/>
    <path class="fil1" d="M125 109c24,0 43,20 43,43 0,24 -19,43 -43,43 -24,0 -43,-19 -43,-43 0,-23 19,-43 43,-43zm0 79c20,0 35,-16 35,-36 0,-19 -15,-35 -35,-35 -20,0 -35,16 -35,35 0,20 15,36 35,36z"/>
    <path class="fil1" d="M154 107c-2,0 -3,-2 -3,-4 0,-2 1,-3 3,-3l39 0c2,0 4,1 4,3 0,2 -2,4 -4,4l-39 0z"/>
    <path class="fil1" d="M212 123c0,2 -2,3 -4,3l-34 0c-2,0 -4,-1 -4,-3 0,-2 2,-4 4,-4l34 0c2,0 4,2 4,4z"/>
    <path class="fil1" d="M222 142c0,2 -2,4 -4,4l-34 0c-2,0 -4,-2 -4,-4 0,-2 2,-3 4,-3l34 0c2,0 4,1 4,3z"/>
    <path class="fil1" d="M154 197l39 0c2,0 4,2 4,4 0,2 -2,4 -4,4l-39 0c-2,0 -3,-2 -3,-4 0,-2 1,-4 3,-4z"/>
    <path class="fil1" d="M170 181c0,-2 2,-3 4,-3l34 0c2,0 4,1 4,3 0,2 -2,4 -4,4l-34 0c-2,0 -4,-2 -4,-4z"/>
    <path class="fil1" d="M180 162c0,-2 2,-4 4,-4l34 0c2,0 4,2 4,4 0,2 -2,4 -4,4l-34 0c-2,0 -4,-2 -4,-4z"/>
   </g>
  </g>
 </g>
</svg>
