<?xml version="1.0" encoding="UTF-8"?>
<!DOCTYPE svg PUBLIC "-//W3C//DTD SVG 1.1//EN" "http://www.w3.org/Graphics/SVG/1.1/DTD/svg11.dtd">
<!-- Creator: CorelDRAW X8 -->
<svg xmlns="http://www.w3.org/2000/svg" xml:space="preserve" width="250px" height="250px" version="1.1" style="shape-rendering:geometricPrecision; text-rendering:geometricPrecision; image-rendering:optimizeQuality; fill-rule:evenodd; clip-rule:evenodd"
viewBox="0 0 250 250"
 xmlns:xlink="http://www.w3.org/1999/xlink">
 <defs>
  <style type="text/css">
   <![CDATA[
    .fil0 {fill:#EBECEC}
    .fil1 {fill:#B1413F;fill-rule:nonzero}
   ]]>
  </style>
 </defs>
 <g id="Layer_x0020_1">
  <metadata id="CorelCorpID_0Corel-Layer"/>
  <g id="_2116690277616">
   <path class="fil0" d="M85 195l24 0c0,-6 -1,-11 -1,-17 0,-3 1,-7 2,-10 -5,2 -9,3 -14,3 -4,0 -8,-1 -11,-2l0 26zm35 -120l0 -29 -41 0 -59 104 0 16 59 0c-3,-1 -5,-3 -8,-5 -6,-7 -10,-16 -10,-25 0,-9 4,-18 10,-25 3,-3 6,-5 9,-6l9 -15 0 0 -1 12c2,-1 5,-1 8,-1 3,0 5,0 8,1 1,-9 6,-17 12,-23 1,-1 3,-3 4,-4z"/>
   <path class="fil1" d="M209 194l0 1 -5 0 0 -1c0,-1 0,-1 0,-2 0,-3 0,-7 0,-11l0 0 0 0c0,-2 0,-3 -1,-5 -1,-1 -2,-2 -3,-3 -6,-4 -12,-7 -19,-9 -12,-4 -23,-5 -24,-5l0 0c0,0 0,0 0,0l0 0 0 0c0,0 0,0 0,0l0 0c-2,0 -3,-1 -3,-2 0,0 0,0 0,-1 -1,-12 -2,-18 -2,-24l0 0c0,0 0,0 0,0 -1,-10 -2,-19 -2,-20 0,0 0,-1 -1,-2 -1,0 -1,-1 -2,-1 -1,0 -2,1 -2,1 -1,1 -1,2 -1,3l0 0 0 52c0,0 0,0 0,0 0,0 -1,0 -1,1l0 25c0,2 -1,3 -2,3 -2,0 -3,-1 -3,-3l0 -24c-1,1 -1,1 -2,1 -1,0 -2,1 -3,1 -1,1 -1,2 -2,3 0,2 -1,4 -1,6 0,6 1,12 1,17l-5 0c-1,-5 -1,-11 -1,-17 0,-3 0,-5 1,-8 1,-2 2,-3 4,-5 0,0 0,0 0,0 1,-1 3,-2 5,-2 1,0 2,-1 3,-1l0 -3c0,0 0,0 0,0l0 -24c-3,-1 -5,-3 -8,-5 -2,-1 -4,-4 -6,-6l-11 6c1,2 2,4 2,6 0,5 -3,9 -6,13 -3,3 -8,5 -13,5 -5,0 -10,-2 -13,-5 -3,-4 -5,-8 -5,-13 0,-5 2,-10 5,-13 3,-4 8,-6 13,-6 5,0 10,2 13,6 1,0 1,1 2,2l11 -6c-1,-1 -1,-2 -1,-3 -1,-2 -1,-4 -1,-6l0 -1 0 0c0,0 0,0 0,0 0,-7 3,-13 7,-18 5,-5 12,-8 19,-8 7,0 14,3 19,8 4,5 7,11 7,18 0,1 0,1 0,1l0 0c0,2 0,3 0,5 0,1 -1,2 -1,3l15 8c1,-1 1,-2 2,-3 4,-4 8,-6 13,-6 5,0 10,2 13,6 4,3 6,8 6,13 0,5 -2,9 -6,13 -3,3 -8,5 -13,5 -5,0 -9,-2 -13,-5 -3,-4 -5,-8 -5,-13 0,-2 0,-4 1,-6l-15 -7c-2,2 -3,4 -5,6 -2,2 -4,3 -7,4l2 21c5,1 14,2 24,5 7,2 14,5 20,9 2,2 3,4 5,6 1,2 1,5 1,7l0 0 0 0c0,4 0,8 0,11 0,1 0,2 0,2l0 0zm-82 -75l0 0 0 0c2,3 4,5 6,7 2,1 4,2 5,3l0 -16 0 0c0,-3 1,-5 3,-6 1,-2 3,-3 6,-3 2,0 4,1 6,2 1,2 2,4 2,6 0,2 1,8 2,16 1,-1 2,-2 3,-3 2,-2 4,-4 5,-6l0 0 0 0c1,-2 1,-3 2,-5 0,-1 0,-1 0,-2l-5 0c-2,0 -3,-1 -3,-3 0,-1 1,-2 3,-2l5 0c-1,-5 -3,-9 -6,-12 -3,-4 -8,-6 -12,-6l0 5c0,1 -1,2 -3,2 -1,0 -3,-1 -3,-2l0 -5c-4,0 -9,2 -12,6 -3,3 -5,7 -6,12l5 0c2,0 3,1 3,2 0,2 -1,3 -3,3l-5 0c0,1 0,2 1,3 0,1 1,3 1,4l0 0 0 0 0 0 0 0 0 0 0 0 0 0 0 0 0 0 0 0 0 0 0 0 0 0 0 0 0 0 0 0 0 0 0 0 0 0 0 0 0 0 0 0 0 0 0 0 0 0 0 0 0 0 0 0 0 0 0 0 0 0 0 0 0 0 0 0 0 0 0 0 0 0 0 0 0 0zm87 19l-5 0c-1,0 -2,-1 -2,-2 0,-2 1,-3 2,-3l5 0c0,-2 -2,-5 -3,-7 -2,-1 -4,-3 -7,-3l0 5c0,1 -1,3 -3,3 -1,0 -2,-2 -2,-3l0 -5c-3,0 -5,2 -7,3 -2,2 -3,5 -4,7l5 0c2,0 3,1 3,3 0,1 -1,2 -3,2l-5 0c1,3 2,5 4,7 2,2 4,3 7,4l0 -5c0,-2 1,-3 2,-3 2,0 3,1 3,3l0 5c3,-1 5,-2 7,-4 1,-2 3,-4 3,-7zm-105 0l-5 0c-1,0 -3,-1 -3,-2 0,-2 2,-3 3,-3l5 0c-1,-2 -2,-5 -4,-7 -1,-1 -4,-3 -6,-3l0 5c0,1 -1,3 -3,3 -1,0 -3,-2 -3,-3l0 -5c-2,0 -4,2 -6,3 -2,2 -3,5 -4,7l5 0c2,0 3,1 3,3 0,1 -1,2 -3,2l-5 0c1,3 2,5 4,7 2,2 4,3 6,4l0 -5c0,-2 2,-3 3,-3 2,0 3,1 3,3l0 5c2,-1 5,-2 6,-4 2,-2 3,-4 4,-7z"/>
  </g>
 </g>
</svg>
