<?xml version="1.0" encoding="UTF-8"?>
<!DOCTYPE svg PUBLIC "-//W3C//DTD SVG 1.1//EN" "http://www.w3.org/Graphics/SVG/1.1/DTD/svg11.dtd">
<!-- Creator: CorelDRAW X8 -->
<svg xmlns="http://www.w3.org/2000/svg" xml:space="preserve" width="250px" height="250px" version="1.1" style="shape-rendering:geometricPrecision; text-rendering:geometricPrecision; image-rendering:optimizeQuality; fill-rule:evenodd; clip-rule:evenodd"
viewBox="0 0 250 250"
 xmlns:xlink="http://www.w3.org/1999/xlink">
 <defs>
  <style type="text/css">
   <![CDATA[
    .fil0 {fill:#EBECEC}
    .fil1 {fill:#B1413F}
   ]]>
  </style>
 </defs>
 <g id="Layer_x0020_1">
  <metadata id="CorelCorpID_0Corel-Layer"/>
  <g id="_2116792421744">
   <path class="fil0" d="M61 93l0 -21 63 0c0,-1 2,-3 3,-4 1,-1 2,-2 4,-3l0 -30 -107 0 0 95c13,0 41,-4 58,1 10,3 15,8 16,19 0,14 -8,21 -20,21 -11,0 -19,-6 -19,-17l-37 0c1,34 24,55 56,55 -1,-2 -1,-4 -1,-6l0 -12c0,-8 4,-15 11,-19 4,-8 12,-13 22,-13l6 0 -1 0 -20 -21c-5,-5 -8,-12 -8,-19 0,-7 3,-14 8,-19 2,-2 3,-3 5,-4 -12,-3 -26,-4 -39,-3z"/>
   <g>
    <g>
     <path class="fil1" d="M142 135c0,2 1,3 1,4 0,3 -1,5 -3,6 -1,2 -3,3 -5,3 -3,0 -5,-1 -6,-3l-21 -20c-1,-2 -2,-4 -2,-6 0,-2 1,-4 2,-6 2,-1 4,-2 6,-2 2,0 3,0 4,1l21 -21c-1,-1 -1,-2 -1,-4 0,-2 1,-4 2,-5 2,-2 4,-3 6,-3 2,0 4,1 6,3l20 20c3,3 3,8 0,11 -1,2 -4,3 -6,3 -1,0 -3,-1 -4,-1l-4 4 61 61c2,2 3,4 3,6 0,2 -1,5 -3,6 -2,2 -4,3 -6,3 -2,0 -4,-1 -6,-3l-61 -61 -4 4zm2 -10l4 -4 10 -10 -5 -5 -11 -11 -20 21 16 15 6 -6c0,0 0,0 0,0zm-32 -8c0,1 -1,1 -1,2 0,1 1,1 1,2l21 20c1,1 2,1 4,0 0,0 0,-1 0,-2 0,0 0,-1 0,-2l-1 0c0,0 0,0 0,0l-19 -20c0,0 0,0 0,0l-1 0c0,0 -1,-1 -2,-1 0,0 -1,1 -2,1zm56 -7c1,-1 1,-3 0,-4l-20 -21c-1,0 -1,0 -2,0 -1,0 -1,0 -2,0 -1,1 -1,2 -1,2 0,1 0,2 1,2l20 21c1,1 3,1 4,0zm43 78c1,1 3,1 4,0 1,0 1,-1 1,-2 0,-1 0,-1 -1,-2l-61 -61 -4 4 61 61z"/>
     <path class="fil1" d="M99 188l4 0 0 -3c0,-4 3,-7 7,-7l39 0c4,0 7,3 7,7l0 3 4 0c2,0 3,1 3,3l0 12c0,2 -1,3 -3,3l-61 0c-2,0 -3,-1 -3,-3l0 -12c0,-2 1,-3 3,-3zm51 -3c0,-1 0,-2 -1,-2l-39 0c-1,0 -1,1 -1,2l0 3 41 0 0 -3zm-48 16l56 0 0 -8 -5 0 -47 0 -4 0 0 8z"/>
    </g>
   </g>
  </g>
 </g>
</svg>
