<?xml version="1.0" encoding="UTF-8"?>
<!DOCTYPE svg PUBLIC "-//W3C//DTD SVG 1.1//EN" "http://www.w3.org/Graphics/SVG/1.1/DTD/svg11.dtd">
<!-- Creator: CorelDRAW X8 -->
<svg xmlns="http://www.w3.org/2000/svg" xml:space="preserve" width="250px" height="250px" version="1.1" style="shape-rendering:geometricPrecision; text-rendering:geometricPrecision; image-rendering:optimizeQuality; fill-rule:evenodd; clip-rule:evenodd"
viewBox="0 0 250 250"
 xmlns:xlink="http://www.w3.org/1999/xlink">
 <defs>
  <style type="text/css">
   <![CDATA[
    .fil0 {fill:#EBECEC}
    .fil1 {fill:#B1413F}
   ]]>
  </style>
 </defs>
 <g id="Layer_x0020_1">
  <metadata id="CorelCorpID_0Corel-Layer"/>
  <g id="_2116743827728">
   <path class="fil0" d="M98 93l32 -54 -48 0 -48 81c-7,10 -9,22 -9,33 0,40 28,58 65,58 5,0 11,0 16,-1 -5,-2 -9,-4 -13,-6 -8,-5 -12,-15 -10,-24l2 -6c-11,-2 -17,-10 -17,-21 0,-9 5,-18 15,-20 0,-2 0,-4 0,-6 0,-14 6,-26 15,-34z"/>
   <g>
    <path class="fil1" d="M145 134c-11,-4 -15,-6 -15,-9 0,-4 6,-4 9,-4 8,0 14,2 17,4l1 0c1,0 2,0 3,0 1,0 2,-1 2,-2l4 -16c1,-2 0,-4 -2,-4 -5,-3 -12,-4 -19,-5l0 -9c0,-2 0,-4 -2,-4l-14 0c-2,0 -4,2 -4,4l0 10c-14,4 -23,15 -23,28 0,18 14,25 27,30 11,4 13,6 13,9 0,5 -8,5 -10,5 -10,0 -18,-3 -22,-6 -1,0 -2,0 -3,0 -1,1 -1,2 -2,3l-4 16c0,2 0,3 2,4 5,3 13,6 22,6l0 11c0,2 1,3 3,3l14 0c2,0 3,-1 3,-3l0 -12c16,-4 25,-15 25,-29 0,-15 -7,-24 -25,-30zm-4 53c-1,0 -2,2 -2,3l0 11 -7 0 0 -10c0,-2 -2,-3 -4,-3 -7,-1 -14,-2 -19,-5l2 -9c5,2 12,4 21,4 10,0 17,-5 17,-12 0,-9 -8,-13 -17,-16 -16,-5 -23,-12 -23,-23 0,-11 7,-19 20,-21 2,-1 3,-2 3,-4l0 -10 7 0 0 9c0,2 1,3 3,4 6,0 12,1 17,3l-3 9c-4,-2 -9,-3 -17,-3 -12,0 -16,6 -16,11 0,8 8,11 19,16 18,6 21,13 21,23 0,12 -8,20 -22,23z"/>
    <path class="fil1" d="M210 153c0,-8 -7,-15 -15,-15 -8,0 -15,7 -15,15 0,8 7,15 15,15 8,0 15,-7 15,-15zm-23 0c0,-4 4,-8 8,-8 4,0 8,4 8,8 0,5 -4,8 -8,8 -4,0 -8,-3 -8,-8z"/>
    <path class="fil1" d="M223 111c-1,-1 -3,-2 -4,-2l-15 0c0,0 0,1 0,1 -4,-6 -8,-12 -12,-15 -3,-3 -7,-5 -12,-6 -6,-2 -13,-3 -21,-4 -1,0 -3,1 -3,3 -1,2 1,4 3,4 7,1 14,2 19,3 6,2 8,4 9,5 4,4 9,9 12,16 0,0 0,0 1,0 2,4 4,8 6,13 -7,0 -14,0 -25,0 -4,0 -9,-1 -15,-1 -2,0 -4,2 -4,4 0,2 2,3 4,3 6,0 11,0 15,1 6,0 11,0 15,0 5,0 9,0 13,-1 5,14 9,32 3,50 -1,0 -1,1 -1,1l0 12c0,2 0,3 0,3l-13 0c0,0 -1,-1 -1,-3l0 -10c0,-1 0,-1 0,-2 -1,-1 -2,-1 -3,-1 -4,0 -11,1 -17,1 -2,0 -5,0 -7,1 -2,0 -3,1 -3,3 0,2 2,4 3,3 3,0 5,0 7,0 5,0 10,-1 13,-1l0 6c0,7 3,10 7,10l16 0c3,0 5,-4 5,-10l0 -11c7,-21 3,-42 -3,-56 0,0 0,0 0,0l4 -1c4,-1 6,-4 6,-7l0 -7c0,-2 -1,-3 -2,-5zm-5 12c0,0 0,0 0,0l-6 1c-2,-3 -3,-4 -4,-8l10 0 0 7z"/>
   </g>
  </g>
 </g>
</svg>
