<?xml version="1.0" encoding="UTF-8"?>
<!DOCTYPE svg PUBLIC "-//W3C//DTD SVG 1.1//EN" "http://www.w3.org/Graphics/SVG/1.1/DTD/svg11.dtd">
<!-- Creator: CorelDRAW X8 -->
<svg xmlns="http://www.w3.org/2000/svg" xml:space="preserve" width="250px" height="250px" version="1.1" style="shape-rendering:geometricPrecision; text-rendering:geometricPrecision; image-rendering:optimizeQuality; fill-rule:evenodd; clip-rule:evenodd"
viewBox="0 0 250 250"
 xmlns:xlink="http://www.w3.org/1999/xlink">
 <defs>
  <style type="text/css">
   <![CDATA[
    .fil0 {fill:#EBECEC}
    .fil1 {fill:#B1413F}
   ]]>
  </style>
 </defs>
 <g id="Layer_x0020_1">
  <metadata id="CorelCorpID_0Corel-Layer"/>
  <g id="_2116792428848">
   <path class="fil0" d="M162 44l9 -22 0 -8 -150 0 0 47 81 0 -68 158 33 0c-3,-5 -4,-11 -4,-17l0 -33c0,-19 14,-34 33,-34l6 0c2,0 4,1 5,1 -5,-9 -7,-19 -7,-30 0,-34 28,-62 62,-62z"/>
   <g>
    <path class="fil1" d="M163 119c-2,0 -6,-3 -6,-4 -2,-2 -4,-2 -5,-1 -2,1 -2,4 -1,5 0,1 3,4 7,6l0 4c0,2 2,4 3,4 2,0 4,-2 4,-4l0 -3c3,-1 5,-2 7,-4 2,-3 3,-7 2,-10 -2,-6 -6,-7 -9,-8 0,0 -1,-1 -1,-1 -1,0 -1,0 -2,-1 -2,-1 -4,-1 -4,-3 0,-1 0,-3 0,-4 1,-1 2,-1 4,-1 2,0 6,3 6,4 2,1 4,2 5,0 2,-1 2,-3 1,-5 -1,0 -4,-4 -9,-6l0 -3c0,-2 -2,-4 -4,-4 -1,0 -3,2 -3,4l0 3c-2,1 -4,2 -5,4 -2,3 -3,6 -2,10 2,5 6,7 9,8 0,0 0,0 1,0 0,1 1,1 2,1 2,1 3,2 4,4 0,1 0,2 -1,3 0,1 -1,2 -3,2z"/>
    <path class="fil1" d="M162 146c22,0 40,-18 40,-40 0,-22 -18,-40 -40,-40 -22,0 -39,18 -39,40 0,22 17,40 39,40zm0 -73c19,0 33,15 33,33 0,18 -14,33 -33,33 -18,0 -32,-15 -32,-33 0,-18 14,-33 32,-33z"/>
    <path class="fil1" d="M220 165c-3,-4 -11,-5 -17,-2l-4 2c-11,7 -26,15 -33,17 -1,1 -4,0 -6,-2 -2,-2 -2,-3 -2,-4 0,0 1,-1 5,-2 4,-1 7,-1 9,-2 2,0 3,0 5,0 11,-2 11,-9 10,-12 -1,-7 -11,-7 -16,-7l-29 0c-7,0 -22,8 -30,13 -1,-5 -5,-8 -10,-8l-6 0c-6,0 -11,5 -11,11l0 33c0,6 5,11 11,11l6 0c5,0 8,-3 10,-7l9 0c4,3 24,13 32,13 10,0 57,-32 64,-41 7,-7 4,-11 3,-13zm-118 41l-6 0c-2,0 -4,-2 -4,-4l0 -33c0,-2 2,-4 4,-4l6 0c2,0 4,2 4,4l0 33c0,2 -2,4 -4,4zm110 -33c-9,10 -52,38 -59,38 -5,0 -21,-7 -30,-11 0,-1 -1,-1 -1,-1l-9 0 0 -26c9,-5 24,-13 29,-13l29 0c4,0 9,0 9,1 0,1 1,3 -5,4 -1,0 -2,0 -4,1 -2,0 -5,0 -10,1 -7,2 -9,5 -10,8 -1,3 1,7 4,10 3,3 9,5 13,4 8,-3 23,-11 35,-17l4 -3c3,-1 7,-1 7,0 1,1 0,2 -2,4z"/>
   </g>
  </g>
 </g>
</svg>
