<?xml version="1.0" encoding="UTF-8"?>
<!DOCTYPE svg PUBLIC "-//W3C//DTD SVG 1.1//EN" "http://www.w3.org/Graphics/SVG/1.1/DTD/svg11.dtd">
<!-- Creator: CorelDRAW X8 -->
<svg xmlns="http://www.w3.org/2000/svg" xml:space="preserve" width="250px" height="250px" version="1.1" style="shape-rendering:geometricPrecision; text-rendering:geometricPrecision; image-rendering:optimizeQuality; fill-rule:evenodd; clip-rule:evenodd"
viewBox="0 0 250 250"
 xmlns:xlink="http://www.w3.org/1999/xlink">
 <defs>
  <style type="text/css">
   <![CDATA[
    .fil0 {fill:#EBECEC}
    .fil1 {fill:#B1413F;fill-rule:nonzero}
   ]]>
  </style>
 </defs>
 <g id="Layer_x0020_1">
  <metadata id="CorelCorpID_0Corel-Layer"/>
  <g id="_2116826378256">
   <path class="fil0" d="M154 79c-3,-19 -20,-37 -51,-37 -50,0 -63,46 -40,72 -38,27 -25,93 38,94l-9 -25c-2,-4 -2,-9 -1,-13 -14,-10 -10,-34 9,-36 4,-4 8,-7 14,-8l0 0c-4,-4 -6,-9 -6,-15l0 -11 0 0c-2,0 -3,0 -5,0 -20,0 -20,-26 0,-26 8,0 12,4 14,8 3,-2 7,-3 11,-3l26 0z"/>
   <path class="fil1" d="M172 177c1,-2 0,-4 -2,-4l-4 -1 0 -26c0,-1 -1,-2 -2,-2l-47 0c-2,0 -3,1 -3,2l0 26 -4 1c-1,0 -2,2 -2,4l12 29c0,1 1,2 3,2l35 0c1,0 2,-1 2,-2l12 -29zm-29 -57l0 -6 53 0 0 3c0,2 1,3 3,3l3 0 0 53 -9 0c1,0 3,-2 3,-3l0 -12c0,-1 -2,-3 -3,-3 1,0 3,-1 3,-3l0 -11c0,-2 -2,-3 -3,-3l-12 0c-1,0 -3,1 -3,3l0 11c0,2 1,3 3,3 -2,0 -3,2 -3,3l0 12c0,1 1,3 3,3 -2,0 -3,1 -3,3l0 29c0,2 2,3 3,3l41 0c2,0 3,-1 3,-3 0,-2 -1,-3 -3,-3l-38 0 0 -23 38 0c2,0 3,-2 3,-3 0,-2 -1,-3 -3,-3l-3 0 0 -53 3 0c2,0 3,-1 3,-3l0 -23c0,-2 -1,-3 -3,-3l-23 0c-2,0 -3,1 -3,3l0 3 -68 0c-1,0 -2,1 -2,3l0 11c0,2 1,3 2,3l9 0 0 6 -3 0c-1,0 -3,1 -3,3l0 12c0,1 2,3 3,3l12 0c2,0 3,-2 3,-3l0 -12c0,-2 -1,-3 -3,-3l-3 0zm47 24l0 5 -6 0 0 -5 6 0zm0 17l0 6 -6 0 0 -6 6 0zm-47 -35l0 6 -6 0 0 -6 6 0zm-12 -23l65 0 0 5 -53 0 -6 0 -6 0 0 -5zm71 11l0 -3 0 0 0 0 0 -11 0 0 0 0 0 -3 17 0 0 17 -17 0zm-41 41l-41 0 0 -6 41 0 0 6zm-41 6l41 0 0 10 -20 -4 -1 0 -20 4 0 -10zm23 41l0 -29 22 5 -9 24 -13 0zm-6 -29l0 29 -12 0 -10 -24 22 -5zm76 -53l0 53 -6 0 0 -53 6 0z"/>
  </g>
 </g>
</svg>
