<?xml version="1.0" encoding="UTF-8"?>
<!DOCTYPE svg PUBLIC "-//W3C//DTD SVG 1.1//EN" "http://www.w3.org/Graphics/SVG/1.1/DTD/svg11.dtd">
<!-- Creator: CorelDRAW X8 -->
<svg xmlns="http://www.w3.org/2000/svg" xml:space="preserve" width="250px" height="250px" version="1.1" style="shape-rendering:geometricPrecision; text-rendering:geometricPrecision; image-rendering:optimizeQuality; fill-rule:evenodd; clip-rule:evenodd"
viewBox="0 0 250 250"
 xmlns:xlink="http://www.w3.org/1999/xlink">
 <defs>
  <style type="text/css">
   <![CDATA[
    .fil0 {fill:#EBECEC}
    .fil1 {fill:#B1413F}
   ]]>
  </style>
 </defs>
 <g id="Layer_x0020_1">
  <metadata id="CorelCorpID_0Corel-Layer"/>
  <g id="_2116802323728">
   <path class="fil0" d="M82 154l-34 58 48 0 8 -13c-11,-3 -17,-15 -13,-26 -1,-1 -1,-3 0,-4 -1,-2 -2,-3 -2,-4 -4,-3 -6,-7 -7,-11zm68 -82c-9,-23 -32,-34 -61,-34 -37,0 -64,18 -64,58 0,32 22,56 57,55 -1,-7 2,-13 7,-17 0,-1 1,-3 1,-4 0,-1 0,-3 1,-4 -1,-3 -2,-6 -1,-8l-1 0c-13,0 -21,-9 -21,-22 0,-11 8,-21 21,-21 13,0 21,9 22,20 0,-1 0,-1 1,-2 2,-12 15,-20 27,-15 1,-1 3,-1 4,-1 1,0 3,-1 4,-2 1,-1 2,-2 3,-3z"/>
   <g>
    <path class="fil1" d="M171 93l-4 -1c-1,0 -1,0 -1,-1l-2 -3c0,-1 -2,-1 -3,0l-1 3c-1,1 -1,1 -2,1l-3 1c-2,0 -2,1 -1,2l3 3c0,0 0,1 0,1l-1 4c0,1 1,3 3,2l3 -2c0,0 1,0 1,0l4 2c1,1 2,-1 2,-2l-1 -4c0,0 0,-1 1,-1l2 -2c2,-1 1,-3 0,-3z"/>
    <path class="fil1" d="M142 103c0,0 0,-1 0,-1l1 -4c1,-1 -1,-2 -2,-2l-3 2c-1,0 -2,0 -2,0l-3 -2c-1,-1 -3,0 -3,1l1 4c0,0 0,1 -1,1l-3 2c-1,1 0,3 1,3l4 1c0,0 1,0 1,1l1 4c0,1 2,1 3,0l2 -3c0,-1 0,-1 1,-1l4 0c1,0 2,-2 1,-3l-3 -3z"/>
    <path class="fil1" d="M111 123c0,1 0,1 0,2l-2 3c0,1 1,3 2,2l4 -1c1,0 1,0 2,1l2 2c1,1 3,0 3,-1l0 -4c0,0 0,-1 1,-1l3 -2c1,-1 1,-3 0,-3l-4 -1c0,0 -1,-1 -1,-1l-1 -4c0,-1 -2,-2 -3,-1l-2 3c0,1 -1,1 -1,1l-4 0c-1,-1 -2,1 -1,2l2 3z"/>
    <path class="fil1" d="M111 155c0,0 1,0 2,0l3 1c2,0 3,-1 2,-2l-2 -4c0,0 0,-1 0,-1l2 -4c1,-1 0,-2 -2,-2l-3 1c-1,0 -2,0 -2,0l-2 -4c-1,-1 -3,0 -3,1l0 4c0,1 -1,1 -1,1l-4 2c-1,0 -1,2 0,3l4 1c0,1 1,1 1,2l0 3c0,2 2,2 3,1l2 -3z"/>
    <path class="fil1" d="M126 175l-3 -2c-1,0 -1,0 -1,-1l0 -4c0,-1 -2,-2 -3,-1l-2 3c-1,0 -1,0 -2,0l-4 -1c-1,-1 -2,1 -2,2l2 3c0,1 0,2 0,2l-2 3c-1,1 0,3 1,3l4 -1c0,0 1,0 1,1l2 3c1,1 3,0 3,-1l1 -4c0,0 1,-1 1,-1l4 -1c1,0 1,-2 0,-3z"/>
    <path class="fil1" d="M144 190l-4 0c-1,0 -1,0 -1,-1l-2 -3c-1,-1 -3,-1 -3,0l-1 4c0,0 -1,1 -1,1l-4 1c-1,0 -2,2 -1,3l3 2c1,0 1,1 1,1l-1 4c0,1 2,2 3,1l3 -2c1,0 1,0 2,0l3 2c2,0 3,-1 2,-2l-1 -4c0,0 0,-1 1,-1l2 -3c1,-1 0,-3 -1,-3z"/>
    <path class="fil1" d="M169 201c-1,0 -1,-1 -1,-2l1 -3c0,-2 -1,-3 -2,-2l-4 2c0,0 -1,0 -1,0l-3 -2c-2,-1 -3,0 -3,2l1 3c0,1 0,2 0,2l-3 2c-1,1 -1,3 1,3l3 0c1,0 1,1 2,1l1 4c0,1 2,1 3,0l1 -4c1,0 1,-1 2,-1l3 0c2,0 2,-2 1,-3l-2 -2z"/>
    <path class="fil1" d="M197 192l-3 -1c-1,0 -1,-1 -2,-1l-1 -4c0,-1 -2,-1 -3,0l-2 3c0,1 0,1 -1,1l-4 0c-1,0 -2,2 -1,3l3 2c0,1 0,1 0,2l-1 4c-1,1 1,2 2,2l4 -2c0,0 1,0 1,0l3 2c1,1 3,0 3,-1l-1 -4c0,0 0,-1 1,-1l3 -2c1,-1 1,-3 -1,-3z"/>
    <path class="fil1" d="M214 176c0,-1 0,-1 0,-2l2 -3c0,-2 -1,-3 -2,-3l-4 2c0,0 -1,0 -1,-1l-3 -2c-1,-1 -3,0 -3,1l0 4c0,0 0,1 -1,1l-3 2c-1,1 -1,2 0,3l4 1c0,0 1,1 1,1l1 4c0,1 2,2 3,0l2 -3c0,0 1,0 1,0l4 0c1,0 2,-1 1,-2l-2 -3z"/>
    <path class="fil1" d="M224 148l-4 -1c0,-1 0,-1 0,-2l-1 -3c0,-2 -2,-2 -2,-1l-3 3c0,0 -1,0 -1,0l-4 -1c-2,0 -3,1 -2,2l2 4c0,0 0,1 0,1l-2 4c-1,1 1,2 2,2l4 -1c0,0 1,0 1,0l3 3c0,1 2,1 2,-1l1 -3c0,-1 0,-1 0,-2l4 -1c1,-1 1,-2 0,-3z"/>
    <path class="fil1" d="M199 124l3 2c1,0 1,0 1,1l0 4c0,1 2,2 3,1l3 -3c0,0 1,0 1,0l4 1c1,1 2,-1 2,-2l-2 -4c0,0 0,-1 0,-1l2 -3c1,-1 0,-3 -1,-3l-4 1c0,0 -1,0 -1,-1l-2 -3c-1,-1 -3,-1 -3,1l-1 4c0,0 0,1 -1,1l-4 1c-1,0 -1,2 0,3z"/>
    <path class="fil1" d="M181 109l4 0c1,0 1,0 1,0l2 4c1,1 3,1 3,0l1 -4c0,-1 1,-1 1,-1l4 -1c2,0 2,-2 1,-3l-3 -2c-1,0 -1,-1 -1,-1l1 -4c0,-2 -2,-3 -3,-2l-3 3c-1,0 -1,0 -2,0l-3 -2c-1,0 -3,1 -2,2l1 4c0,0 0,1 -1,1l-2 3c-1,1 0,3 1,3z"/>
   </g>
  </g>
 </g>
</svg>
