<?xml version="1.0" encoding="UTF-8"?>
<!DOCTYPE svg PUBLIC "-//W3C//DTD SVG 1.1//EN" "http://www.w3.org/Graphics/SVG/1.1/DTD/svg11.dtd">
<!-- Creator: CorelDRAW X8 -->
<svg xmlns="http://www.w3.org/2000/svg" xml:space="preserve" width="413px" height="272px" version="1.1" style="shape-rendering:geometricPrecision; text-rendering:geometricPrecision; image-rendering:optimizeQuality; fill-rule:evenodd; clip-rule:evenodd"
viewBox="0 0 413 272"
 xmlns:xlink="http://www.w3.org/1999/xlink">
 <defs>
  <style type="text/css">
   <![CDATA[
    .fil0 {fill:#FEFEFE}
    .fil1 {fill:#FEFEFE;fill-rule:nonzero}
   ]]>
  </style>
 </defs>
 <g id="Layer_x0020_1">
  <metadata id="CorelCorpID_0Corel-Layer"/>
  <g id="_2838553339792">
   <g>
    <polygon class="fil0" points="363,152 348,178 397,178 372,136 "/>
    <polygon class="fil0" points="320,56 299,93 299,93 308,78 325,133 324,136 345,99 "/>
    <path class="fil0" d="M222 56l-21 37 9 -15 17 55 -1 3 21 -37 -25 -43zm-21 37l25 43 0 0 -25 -43z"/>
    <polygon class="fil0" points="120,49 94,49 78,49 53,6 53,6 78,49 94,49 55,6 95,6 "/>
    <path class="fil0" d="M53 6l75 130 -25 42 -74 -130 24 -42zm48 117l3 8 8 0 -7 4 3 8 -7 -5 -6 5 2 -8 -6 -4 8 0 2 -8zm-12 -21l3 7 8 0 -7 5 3 8 -7 -5 -7 5 3 -8 -7 -5 9 0 2 -7zm-12 -22l2 8 8 0 -6 5 2 7 -6 -5 -7 5 3 -7 -7 -5 8 0 3 -8zm-13 -21l3 7 8 0 -7 5 3 8 -7 -5 -6 5 2 -8 -6 -5 8 0 2 -7zm-12 -22l3 8 8 0 -7 5 3 7 -7 -4 -6 4 2 -7 -7 -5 9 0 2 -8z"/>
    <polygon class="fil0" points="48,178 6,178 27,142 "/>
    <polygon class="fil0" points="151,6 226,136 201,178 102,6 "/>
    <polygon class="fil0" points="249,6 324,136 299,178 200,6 "/>
    <path class="fil0" d="M98 169l5 9 0 0 -5 -9zm5 9l-48 0 -25 -42 33 0 39 42 1 0z"/>
    <polygon class="fil0" points="347,6 372,50 348,93 298,6 "/>
   </g>
   <path class="fil1" d="M1 255l0 -36 7 0 9 26c1,2 1,4 2,5 0,-1 1,-3 2,-6l8 -25 7 0 0 36 -5 0 0 -30 -11 30 -4 0 -10 -31 0 31 -5 0z"/>
   <path id="1" class="fil1" d="M60 252c-1,2 -3,3 -4,3 -2,1 -4,1 -5,1 -3,0 -6,-1 -7,-2 -2,-2 -3,-3 -3,-6 0,-1 1,-2 1,-3 1,-1 2,-2 3,-3 1,0 2,-1 3,-1 1,0 2,-1 4,-1 4,0 6,-1 8,-1 0,-1 0,-1 0,-2 0,-1 0,-3 -1,-3 -1,-1 -3,-2 -5,-2 -3,0 -4,0 -5,1 -1,1 -2,2 -2,4l-5 0c1,-2 1,-4 2,-5 1,-1 2,-2 4,-3 2,0 4,-1 6,-1 2,0 4,1 6,1 1,1 2,1 3,2 1,1 1,2 1,3 0,1 1,2 1,4l0 6c0,5 0,7 0,8 0,1 0,2 1,3l-5 0c0,0 -1,-2 -1,-3zm0 -10c-2,1 -4,1 -7,2 -2,0 -4,0 -4,1 -1,0 -2,1 -2,1 -1,1 -1,2 -1,2 0,2 1,3 2,3 1,1 2,2 4,2 1,0 3,-1 4,-2 2,0 3,-1 3,-3 1,-1 1,-2 1,-4l0 -2z"/>
   <polygon id="2" class="fil1" points="71,255 71,219 76,219 76,240 87,229 92,229 82,239 93,255 88,255 79,242 76,245 76,255 "/>
   <path id="3" class="fil1" d="M115 247l5 0c-1,3 -2,5 -4,7 -2,1 -5,2 -8,2 -4,0 -7,-1 -9,-4 -2,-2 -4,-5 -4,-10 0,-4 2,-7 4,-10 2,-2 5,-4 9,-4 3,0 6,2 8,4 3,2 4,6 4,10 0,0 0,1 0,1l-20 0c0,3 1,5 3,7 1,2 3,2 5,2 2,0 3,0 4,-1 1,-1 2,-2 3,-4zm-15 -7l15 0c0,-3 -1,-4 -2,-5 -1,-2 -3,-3 -5,-3 -2,0 -4,1 -5,2 -2,2 -3,3 -3,6z"/>
   <path id="4" class="fil1" d="M144 255l-4 0 0 -36 4 0 0 13c2,-2 4,-4 7,-4 2,0 3,1 5,1 1,1 3,2 4,3 0,1 1,3 2,4 0,2 1,4 1,6 0,4 -2,8 -4,10 -2,3 -5,4 -8,4 -3,0 -6,-1 -7,-4l0 3zm0 -13c0,3 0,5 1,7 1,2 3,3 6,3 2,0 3,-1 5,-2 1,-2 2,-4 2,-8 0,-3 -1,-6 -2,-7 -1,-2 -3,-3 -5,-3 -2,0 -4,1 -5,3 -2,1 -2,4 -2,7z"/>
   <path id="5" class="fil1" d="M168 266l-1 -4c1,0 2,0 3,0 1,0 2,0 2,-1 1,0 1,0 2,-1 0,0 0,-2 1,-3 0,-1 0,-1 1,-1l-11 -27 5 0 6 15c1,2 1,4 2,6 0,-2 1,-4 2,-6l5 -15 5 0 -10 27c-1,3 -2,5 -3,6 -1,1 -2,2 -3,3 -1,1 -2,1 -3,1 -1,0 -2,0 -3,0z"/>
   <path id="6" class="fil1" d="M207 244l4 -1c0,2 1,4 2,5 1,1 2,2 3,3 2,0 4,1 6,1 2,0 4,0 5,-1 1,-1 2,-1 3,-2 1,-1 1,-2 1,-3 0,-2 0,-3 -1,-3 -1,-1 -2,-2 -3,-3 -1,0 -3,-1 -7,-1 -3,-1 -5,-2 -7,-3 -1,-1 -3,-2 -4,-3 0,-1 -1,-3 -1,-5 0,-1 1,-3 2,-5 1,-1 2,-3 4,-3 2,-1 5,-2 7,-2 3,0 5,1 7,2 2,0 4,2 5,3 1,2 2,4 2,6l-5 1c0,-3 -1,-4 -2,-6 -2,-1 -4,-1 -7,-1 -3,0 -5,0 -6,1 -2,1 -2,3 -2,4 0,1 0,2 1,3 1,1 4,2 7,3 4,1 7,2 9,2 2,1 3,2 4,4 1,1 2,3 2,5 0,2 -1,4 -2,6 -1,1 -3,3 -5,4 -2,1 -4,1 -7,1 -3,0 -6,0 -8,-1 -2,-1 -4,-3 -5,-5 -2,-2 -2,-4 -2,-6z"/>
   <path id="7" class="fil1" d="M252 251l0 4c-1,1 -2,1 -3,1 -2,0 -3,0 -4,-1 -1,0 -1,-1 -2,-2 0,-1 0,-3 0,-5l0 -16 -4 0 0 -3 4 0 0 -7 4 -2 0 9 5 0 0 3 -5 0 0 16c0,1 0,2 0,2 0,1 1,1 1,1 0,1 1,1 2,1 0,0 1,0 2,-1z"/>
   <path id="8" class="fil1" d="M273 252c-1,2 -3,3 -4,3 -2,1 -4,1 -5,1 -3,0 -6,-1 -7,-2 -2,-2 -3,-3 -3,-6 0,-1 1,-2 1,-3 1,-1 2,-2 3,-3 1,0 2,-1 3,-1 1,0 2,-1 4,-1 4,0 6,-1 8,-1 0,-1 0,-1 0,-2 0,-1 0,-3 -1,-3 -1,-1 -3,-2 -5,-2 -3,0 -4,0 -5,1 -1,1 -2,2 -2,4l-5 0c1,-2 1,-4 2,-5 1,-1 2,-2 4,-3 2,0 4,-1 6,-1 3,0 4,1 6,1 1,1 2,1 3,2 1,1 1,2 1,3 0,1 1,2 1,4l0 6c0,5 0,7 0,8 0,1 0,2 1,3l-5 0c0,0 -1,-2 -1,-3zm0 -10c-2,1 -4,1 -7,2 -2,0 -4,0 -4,1 -1,0 -2,1 -2,1 0,1 -1,2 -1,2 0,2 1,3 2,3 1,1 2,2 4,2 1,0 3,-1 4,-2 2,0 3,-1 3,-3 1,-1 1,-2 1,-4l0 -2z"/>
   <path id="9" class="fil1" d="M284 255l0 -26 4 0 0 4c1,-2 2,-3 3,-4 1,0 2,-1 3,-1 2,0 3,1 5,2l-2 4c-1,-1 -2,-1 -3,-1 -1,0 -2,0 -3,1 0,1 -1,1 -1,2 -1,2 -1,4 -1,6l0 13 -5 0z"/>
   <path id="10" class="fil1" d="M323 255l-10 -36 5 0 5 24c1,2 2,5 2,7 1,-4 1,-6 2,-6l7 -25 5 0 6 18c1,5 2,9 3,13 0,-2 1,-5 1,-8l6 -23 5 0 -10 36 -5 0 -7 -27c-1,-3 -1,-4 -2,-5 0,2 0,3 -1,5l-7 27 -5 0z"/>
   <path id="11" class="fil1" d="M379 252c-1,2 -3,3 -5,3 -1,1 -3,1 -4,1 -3,0 -6,-1 -7,-2 -2,-2 -3,-3 -3,-6 0,-1 1,-2 1,-3 1,-1 2,-2 3,-3 1,0 2,-1 3,-1 1,0 2,-1 4,-1 4,0 6,-1 8,-1 0,-1 0,-1 0,-2 0,-1 0,-3 -1,-3 -1,-1 -3,-2 -5,-2 -3,0 -4,0 -5,1 -1,1 -2,2 -2,4l-5 0c1,-2 1,-4 2,-5 1,-1 2,-2 4,-3 2,0 4,-1 6,-1 2,0 4,1 6,1 1,1 2,1 3,2 1,1 1,2 1,3 0,1 0,2 0,4l0 6c0,5 1,7 1,8 0,1 0,2 1,3l-5 0c0,0 -1,-2 -1,-3zm0 -10c-2,1 -4,1 -7,2 -2,0 -4,0 -4,1 -1,0 -2,1 -2,1 -1,1 -1,2 -1,2 0,2 1,3 2,3 1,1 2,2 4,2 1,0 3,-1 4,-2 2,0 3,-1 3,-3 1,-1 1,-2 1,-4l0 -2z"/>
   <path id="12" class="fil1" d="M390 266l0 -4c1,0 2,0 2,0 1,0 2,0 3,-1 0,0 1,0 1,-1 0,0 1,-2 2,-3 0,-1 0,-1 0,-1l-10 -27 5 0 5 15c1,2 2,4 2,6 1,-2 1,-4 2,-6l6 -15 4 0 -10 27c-1,3 -2,5 -2,6 -1,1 -2,2 -3,3 -1,1 -2,1 -4,1 -1,0 -2,0 -3,0z"/>
  </g>
 </g>
</svg>
