<?xml version="1.0" encoding="UTF-8"?>
<!DOCTYPE svg PUBLIC "-//W3C//DTD SVG 1.1//EN" "http://www.w3.org/Graphics/SVG/1.1/DTD/svg11.dtd">
<!-- Creator: CorelDRAW X8 -->
<svg xmlns="http://www.w3.org/2000/svg" xml:space="preserve" width="71px" height="60px" version="1.1" style="shape-rendering:geometricPrecision; text-rendering:geometricPrecision; image-rendering:optimizeQuality; fill-rule:evenodd; clip-rule:evenodd"
viewBox="0 0 71 60"
 xmlns:xlink="http://www.w3.org/1999/xlink">
 <defs>
  <style type="text/css">
   <![CDATA[
    .fil0 {fill:white}
    .fil1 {fill:#B1413F;fill-rule:nonzero}
   ]]>
  </style>
 </defs>
 <g id="Layer_x0020_1">
  <metadata id="CorelCorpID_0Corel-Layer"/>
  <g id="_2034980742768">
   <path class="fil0" d="M57 39l6 6c4,3 4,9 0,13 -3,3 -9,3 -13,0l-5 -6c-4,2 -8,3 -12,3 -8,0 -14,-3 -20,-8 -5,-5 -8,-12 -8,-20 0,-7 3,-14 8,-19 6,-5 12,-8 20,-8 7,0 14,3 19,8 5,5 8,12 8,19 0,5 -1,9 -3,12zm-17 -18c-2,-2 -5,-3 -7,-3 -3,0 -5,1 -7,3 -2,1 -3,4 -3,6 0,3 1,5 3,7 2,2 4,3 7,3 2,0 5,-1 7,-3 1,-2 2,-4 2,-7 0,-2 -1,-5 -2,-6z"/>
  </g>
  <g id="_2034980742864">
   <path class="fil1" d="M47 39l11 11c1,1 1,2 0,3 -1,0 -2,0 -3,0l-11 -11c1,-1 2,-2 3,-3z"/>
   <path class="fil1" d="M33 7c5,0 10,2 14,6 4,4 6,9 6,14 0,6 -2,11 -6,15 -4,3 -9,6 -14,6 -6,0 -11,-3 -15,-6 -3,-4 -6,-9 -6,-15 0,-5 3,-10 6,-14 4,-4 9,-6 15,-6zm11 9c-3,-3 -7,-5 -11,-5 -5,0 -9,2 -12,5 -3,3 -5,7 -5,11 0,5 2,9 5,12 3,3 7,5 12,5 4,0 8,-2 11,-5 3,-3 5,-7 5,-12 0,-4 -2,-8 -5,-11z"/>
  </g>
 </g>
</svg>
