<?xml version="1.0" encoding="UTF-8"?>
<!DOCTYPE svg PUBLIC "-//W3C//DTD SVG 1.1//EN" "http://www.w3.org/Graphics/SVG/1.1/DTD/svg11.dtd">
<!-- Creator: CorelDRAW X8 -->
<svg xmlns="http://www.w3.org/2000/svg" xml:space="preserve" width="910px" height="101px" version="1.1" style="shape-rendering:geometricPrecision; text-rendering:geometricPrecision; image-rendering:optimizeQuality; fill-rule:evenodd; clip-rule:evenodd"
viewBox="0 0 910 101"
 xmlns:xlink="http://www.w3.org/1999/xlink">
 <defs>
  <style type="text/css">
   <![CDATA[
    .fil0 {fill:#EBECEC;fill-rule:nonzero}
   ]]>
  </style>
 </defs>
 <g id="Layer_x0020_1">
  <metadata id="CorelCorpID_0Corel-Layer"/>
  <path class="fil0" d="M42 80c-3,3 -7,5 -10,6 -3,1 -6,2 -10,2 -6,0 -10,-2 -14,-4 -3,-3 -4,-7 -4,-11 0,-3 0,-6 1,-8 2,-2 3,-4 5,-5 2,-1 4,-2 7,-3 2,0 4,-1 8,-1 7,-1 13,-2 16,-3 0,-2 0,-3 0,-3 0,-4 -1,-6 -2,-8 -3,-2 -6,-3 -11,-3 -4,0 -7,1 -9,2 -2,2 -4,5 -5,9l-9 -2c1,-4 2,-7 4,-9 2,-2 5,-4 8,-5 4,-2 8,-2 13,-2 4,0 8,0 11,1 3,1 5,3 6,4 2,2 3,4 3,7 0,1 1,4 1,8l0 12c0,9 0,14 0,16 1,3 1,5 2,7l-9 0c-1,-2 -2,-4 -2,-7zm-1 -20c-3,1 -8,2 -15,3 -3,1 -6,1 -8,2 -1,1 -2,2 -3,3 -1,1 -2,3 -2,4 0,3 1,5 3,6 2,2 5,3 8,3 4,0 7,-1 10,-3 2,-1 4,-3 6,-6 1,-2 1,-5 1,-9l0 -3z"/>
  <path id="1" class="fil0" d="M65 33l21 0c5,0 9,0 11,1 3,1 5,3 7,5 2,2 2,5 2,8 0,3 0,5 -1,7 -1,2 -3,3 -5,5 3,1 5,2 6,4 2,3 3,6 3,9 0,5 -2,9 -6,11 -3,3 -8,4 -14,4l-24 0 0 -54zm9 23l9 0c4,0 7,-1 8,-1 2,0 3,-1 4,-3 2,-1 2,-2 2,-4 0,-3 -1,-5 -3,-6 -2,-1 -5,-2 -10,-2l-10 0 0 16zm0 23l12 0c5,0 9,0 10,-2 2,-1 3,-3 3,-6 0,-1 0,-3 -1,-5 -1,-1 -3,-2 -5,-2 -1,-1 -4,-1 -8,-1l-11 0 0 16z"/>
  <polygon id="2" class="fil0" points="113,33 157,33 157,40 139,40 139,87 130,87 130,40 113,40 "/>
  <path id="3" class="fil0" d="M161 60c0,-10 2,-18 8,-22 5,-4 10,-6 17,-6 7,0 13,2 18,7 5,5 7,11 7,20 0,7 -1,12 -3,16 -2,4 -5,7 -9,10 -4,2 -8,3 -13,3 -8,0 -14,-2 -18,-7 -5,-5 -7,-12 -7,-21zm9 0c0,7 2,12 5,15 3,4 6,5 11,5 5,0 8,-1 11,-5 3,-3 5,-8 5,-16 0,-6 -2,-11 -5,-15 -3,-3 -6,-5 -11,-5 -5,0 -8,2 -11,5 -3,4 -5,9 -5,16z"/>
  <polygon id="4" class="fil0" points="251,33 294,33 294,87 284,87 284,40 260,40 260,87 251,87 "/>
  <path id="5" class="fil0" d="M304 60c0,-10 3,-18 8,-22 5,-4 10,-6 17,-6 8,0 14,2 18,7 5,5 7,11 7,20 0,7 -1,12 -3,16 -2,4 -5,7 -9,10 -4,2 -8,3 -13,3 -7,0 -14,-2 -18,-7 -5,-5 -7,-12 -7,-21zm9 0c0,7 2,12 5,15 3,4 7,5 11,5 5,0 8,-1 11,-5 3,-3 5,-8 5,-16 0,-6 -2,-11 -5,-15 -3,-3 -6,-5 -11,-5 -4,0 -8,2 -11,5 -3,4 -5,9 -5,16z"/>
  <path id="6" class="fil0" d="M370 33l38 0 0 46 5 0 0 23 -7 0 0 -15 -43 0 0 15 -7 0 0 -23 5 0c6,-8 9,-24 9,-46zm8 7c-1,18 -4,31 -9,39l30 0 0 -39 -21 0z"/>
  <path id="7" class="fil0" d="M452 33l9 0 0 23c3,0 5,0 7,-2 1,-1 3,-4 5,-9 2,-5 3,-7 4,-9 1,-1 3,-2 4,-3 2,0 4,0 7,0l2 0 0 7 -3 0c-2,0 -4,1 -4,1 -1,1 -2,3 -4,7 -1,4 -2,6 -3,7 -2,2 -3,3 -6,4 4,1 8,5 12,11l10 17 -10 0 -10 -17c-2,-3 -4,-6 -5,-7 -2,-1 -3,-1 -6,-1l0 25 -9 0 0 -54z"/>
  <path id="8" class="fil0" d="M504 33l42 0 0 54 -9 0 0 -47 -24 0 0 27c0,6 0,11 -1,13 0,2 -1,3 -3,5 -2,1 -5,2 -8,2 -2,0 -5,0 -8,0l0 -8 5 0c1,0 3,0 4,-1 0,0 1,-1 1,-1 0,-1 1,-4 1,-9l0 -35z"/>
  <path id="9" class="fil0" d="M560 33l9 0 0 22 11 0c1,-7 3,-13 7,-17 4,-4 10,-6 16,-6 6,0 10,1 13,3 3,2 6,5 8,9 2,4 3,9 3,16 0,9 -2,16 -7,21 -4,5 -9,7 -17,7 -6,0 -12,-2 -16,-7 -4,-4 -6,-10 -7,-18l-11 0 0 24 -9 0 0 -54zm44 6c-5,0 -8,2 -11,6 -2,3 -4,8 -4,14 0,7 2,13 4,16 3,4 6,5 10,5 4,0 8,-1 10,-4 3,-4 4,-9 4,-16 0,-7 -1,-12 -3,-15 -2,-4 -6,-6 -10,-6z"/>
  <path id="10" class="fil0" d="M632 33l9 0 0 10c0,4 1,8 1,10 1,2 2,3 4,5 2,1 4,2 7,2 4,0 8,-1 14,-3l0 -24 9 0 0 54 -9 0 0 -22c-6,2 -11,3 -16,3 -4,0 -8,-1 -11,-3 -3,-3 -5,-5 -6,-8 -1,-3 -2,-6 -2,-10l0 -14z"/>
 </g>
</svg>
