<?xml version="1.0" encoding="UTF-8"?>
<!DOCTYPE svg PUBLIC "-//W3C//DTD SVG 1.1//EN" "http://www.w3.org/Graphics/SVG/1.1/DTD/svg11.dtd">
<!-- Creator: CorelDRAW X8 -->
<svg xmlns="http://www.w3.org/2000/svg" xml:space="preserve" width="860px" height="82px" version="1.1" style="shape-rendering:geometricPrecision; text-rendering:geometricPrecision; image-rendering:optimizeQuality; fill-rule:evenodd; clip-rule:evenodd"
viewBox="0 0 860 82"
 xmlns:xlink="http://www.w3.org/1999/xlink">
 <defs>
  <style type="text/css">
   <![CDATA[
    .fil0 {fill:#FEFEFE;fill-rule:nonzero}
   ]]>
  </style>
 </defs>
 <g id="Layer_x0020_1">
  <metadata id="CorelCorpID_0Corel-Layer"/>
  <path class="fil0" d="M22 64l29 0 4 10 18 0 0 -3 -33 -70 -8 0 -32 70 0 3 18 0 4 -10zm14 -53l1 0 26 56 -2 0 -5 -11 -39 0 -5 11 -2 0 26 -56zm20 44l-39 0 19 -42 0 0 20 42zm-27 -7l15 0 -8 -17 -7 17zm107 -24c0,-13 -10,-23 -23,-23l-31 0 0 73 34 0c15,0 23,-11 23,-23 0,-7 -3,-12 -9,-15 3,-3 6,-8 6,-12zm-45 42l0 -57 22 0c8,0 14,7 14,15 0,5 -4,12 -9,13l0 0c7,1 12,7 12,14 0,8 -6,15 -14,15l-25 0zm1 -29l0 -27 21 0c7,0 13,6 13,14 0,7 -5,13 -13,13l-21 0zm20 -19l-12 0 0 11 12 0c7,0 7,-11 0,-11zm-20 47l0 -27 24 0c7,0 13,5 13,13 0,7 -6,14 -13,14l-24 0zm23 -20l-15 0 0 12 15 0c7,0 7,-12 0,-12zm31 -44l0 17 18 0 0 56 18 0 0 -56 17 0 0 -17 -53 0zm27 9l0 57 -1 0 0 -57 -19 0 0 -1 39 0 0 1 -19 0zm107 28c0,-50 -73,-50 -73,0 0,50 73,50 73,0zm-64 0c0,-39 55,-39 55,0 0,38 -55,38 -55,0zm54 0c0,37 -53,37 -53,0 0,-38 53,-37 53,0zm-45 0c0,26 37,26 37,0 0,-26 -37,-26 -37,0zm139 36l19 0 0 -73 -60 0 0 73 19 0 0 -56 22 0 0 56zm-31 -63l0 56 -1 0 0 -58 42 0 0 58 -1 0 0 -56 -40 0zm99 63l0 -17 -9 0 0 -39 8 0 0 -17 -35 0 0 17 8 0 0 39 -9 0 0 17 37 0zm-30 -8l0 -1 11 0 0 -55 -10 0 0 -1 21 0 0 1 -10 0 0 55 11 0 0 1 -23 0zm33 16l15 0 0 -8 43 0 0 8 15 0 0 -24 -8 0 -25 -57 -8 0 -25 57 -7 0 0 24zm65 -7l0 -9 -57 0 0 9 -1 0 0 -10 6 0 22 -54 1 0 24 54 6 0 0 10 -1 0zm-7 -10l-22 -52 0 0 -22 52 44 0zm-12 -8l-20 0 10 -26 10 26zm65 17l18 0 0 -28c3,0 5,0 7,0l16 28 21 0 0 -3 -20 -32c15,-9 14,-23 14,-38l-19 0c0,14 1,28 -17,28l-2 0 0 -28 -18 0 0 73zm20 -36l-10 0 0 28 -2 0 0 -58 2 0 0 29 10 0c5,0 10,-1 14,-3 9,-5 12,-14 12,-26l1 0c0,13 -4,24 -16,28l18 30 -1 0 -18 -29c-3,0 -7,1 -10,1zm43 36l18 0 19 -43 18 43 18 0 0 -3 -32 -70 -8 0 -33 70 0 3zm37 -61l0 0 -25 54 -1 0 25 -56 1 0 26 56 -2 0 -24 -54zm147 25c0,-47 -64,-50 -73,-10l-9 0 0 -27 -19 0 0 73 19 0 0 -29 8 0c7,42 74,40 74,-7zm-65 0l0 -1 -26 0 0 30 -2 0 0 -59 2 0 0 28 26 0c1,-37 56,-37 56,2 0,38 -56,38 -56,0zm55 0c0,37 -54,37 -54,0 0,-38 54,-37 54,0zm-45 0c0,26 36,26 36,0 0,-26 -36,-26 -36,0zm103 10l0 26 19 0 0 -73 -19 0 0 30 -3 0c-15,0 -16,-8 -16,-21l0 -9 -19 0 0 9c0,26 10,38 35,38l3 0zm-29 -38l0 -2 2 0 0 2c0,18 5,29 24,29l12 0 0 -31 1 0 0 58 -1 0 0 -26 -13 0c-18,0 -25,-10 -25,-30z"/>
 </g>
</svg>
