<?xml version="1.0" encoding="UTF-8"?>
<!DOCTYPE svg PUBLIC "-//W3C//DTD SVG 1.1//EN" "http://www.w3.org/Graphics/SVG/1.1/DTD/svg11.dtd">
<!-- Creator: CorelDRAW X8 -->
<svg xmlns="http://www.w3.org/2000/svg" xml:space="preserve" width="910px" height="101px" version="1.1" style="shape-rendering:geometricPrecision; text-rendering:geometricPrecision; image-rendering:optimizeQuality; fill-rule:evenodd; clip-rule:evenodd"
viewBox="0 0 910 101"
 xmlns:xlink="http://www.w3.org/1999/xlink">
 <defs>
  <style type="text/css">
   <![CDATA[
    .fil0 {fill:#EBECEC;fill-rule:nonzero}
   ]]>
  </style>
 </defs>
 <g id="Layer_x0020_1">
  <metadata id="CorelCorpID_0Corel-Layer"/>
  <path class="fil0" d="M105 79l1 8c-3,0 -5,1 -7,1 -3,0 -6,-1 -8,-2 -2,-1 -3,-2 -4,-4 0,-2 -1,-5 -1,-11l0 -31 -6 0 0 -7 6 0 0 -14 9 -5 0 19 10 0 0 7 -10 0 0 32c0,2 1,4 1,5 0,0 1,1 2,1 0,1 1,1 3,1 1,0 2,0 4,0z"/>
  <path id="1" class="fil0" d="M149 87l0 -8c-4,6 -10,9 -17,9 -3,0 -6,-1 -9,-2 -3,-1 -5,-3 -6,-4 -2,-2 -2,-5 -3,-7 0,-2 -1,-5 -1,-9l0 -33 10 0 0 30c0,4 0,8 0,9 1,3 2,5 4,6 2,1 4,2 7,2 2,0 5,-1 7,-2 3,-1 4,-3 5,-6 1,-2 2,-6 2,-10l0 -29 9 0 0 54 -8 0z"/>
  <path id="2" class="fil0" d="M171 87l0 -54 9 0 0 8c2,-4 4,-6 5,-7 2,-2 4,-2 6,-2 3,0 7,1 10,3l-4 8c-2,-1 -4,-2 -6,-2 -2,0 -4,1 -6,2 -1,1 -2,3 -3,5 -1,3 -1,7 -1,11l0 28 -10 0z"/>
  <path id="3" class="fil0" d="M206 87l0 -54 8 0 0 7c4,-5 10,-8 18,-8 3,0 6,0 9,1 2,2 4,3 6,5 1,2 2,4 2,7 1,1 1,4 1,9l0 33 -9 0 0 -33c0,-4 -1,-7 -1,-8 -1,-2 -2,-4 -4,-5 -2,-1 -4,-1 -6,-1 -4,0 -8,1 -10,3 -3,3 -5,7 -5,14l0 30 -9 0z"/>
  <polygon id="4" class="fil0" points="264,87 264,12 273,12 273,55 295,33 307,33 286,53 309,87 298,87 280,59 273,65 273,87 "/>
  <path id="5" class="fil0" d="M353 69l9 2c-1,5 -4,9 -8,12 -4,3 -9,5 -15,5 -8,0 -14,-2 -19,-7 -5,-5 -7,-12 -7,-21 0,-9 2,-16 7,-21 5,-5 11,-7 18,-7 7,0 13,2 18,7 4,5 7,12 7,21 0,0 0,1 0,2l-41 0c1,6 2,11 5,14 3,3 7,4 12,4 3,0 6,0 8,-2 3,-2 5,-5 6,-9zm-30 -14l30 0c0,-5 -2,-8 -3,-11 -3,-3 -7,-5 -12,-5 -4,0 -7,2 -10,4 -3,3 -5,7 -5,12z"/>
  <path id="6" class="fil0" d="M374 108l-2 -9c2,1 4,1 6,1 2,0 3,0 5,-1 1,-1 2,-2 3,-3 0,-1 1,-3 2,-7 1,0 1,-1 1,-2l-20 -54 10 0 11 31c1,4 3,8 4,12 1,-4 2,-8 3,-12l12 -31 9 0 -20 55c-2,6 -4,10 -5,12 -2,3 -4,5 -6,7 -2,1 -5,2 -8,2 -1,0 -3,-1 -5,-1z"/>
  <path id="7" class="fil0" d="M490 67l9 1c-1,6 -3,11 -7,15 -4,3 -9,5 -15,5 -8,0 -14,-2 -18,-7 -5,-5 -7,-12 -7,-21 0,-6 1,-11 3,-15 2,-5 5,-8 9,-10 4,-2 8,-3 13,-3 6,0 10,1 14,4 4,3 6,7 7,13l-9 1c0,-4 -2,-6 -4,-8 -2,-2 -5,-3 -8,-3 -5,0 -8,2 -11,5 -3,3 -4,9 -4,16 0,7 1,12 4,16 2,3 6,4 11,4 3,0 6,-1 9,-3 2,-2 3,-5 4,-10z"/>
  <path id="8" class="fil0" d="M542 80c-3,3 -7,5 -10,6 -3,1 -6,2 -10,2 -6,0 -10,-1 -13,-4 -4,-3 -5,-7 -5,-11 0,-3 0,-5 2,-8 1,-2 2,-4 4,-5 2,-1 4,-2 7,-3 2,0 4,-1 8,-1 7,-1 13,-2 16,-3 0,-2 0,-2 0,-3 0,-3 0,-6 -2,-8 -3,-2 -6,-3 -11,-3 -4,0 -7,1 -9,3 -2,1 -4,4 -5,8l-9 -2c1,-4 2,-7 4,-9 2,-2 5,-4 8,-5 4,-2 8,-2 13,-2 4,0 8,0 11,1 3,1 5,3 6,4 2,2 3,4 3,7 1,1 1,4 1,8l0 12c0,9 0,14 0,16 1,3 1,5 2,7l-9 0c-1,-2 -2,-4 -2,-7zm-1 -20c-3,1 -8,2 -15,3 -3,1 -6,1 -8,2 -1,1 -2,2 -3,3 -1,1 -1,3 -1,4 0,3 0,5 2,6 2,2 5,3 8,3 4,0 7,-1 10,-3 3,-1 5,-3 6,-6 1,-2 1,-5 1,-9l0 -3z"/>
  <path id="9" class="fil0" d="M565 87l0 -54 8 0 0 8c2,-4 4,-6 6,-7 1,-2 3,-2 6,-2 3,0 6,1 9,3l-3 8c-2,-1 -5,-2 -7,-2 -2,0 -4,1 -5,2 -2,1 -3,3 -4,5 -1,3 -1,7 -1,11l0 28 -9 0z"/>
 </g>
</svg>
