<?xml version="1.0" encoding="UTF-8"?>
<!DOCTYPE svg PUBLIC "-//W3C//DTD SVG 1.1//EN" "http://www.w3.org/Graphics/SVG/1.1/DTD/svg11.dtd">
<!-- Creator: CorelDRAW X8 -->
<svg xmlns="http://www.w3.org/2000/svg" xml:space="preserve" width="104px" height="104px" version="1.1" style="shape-rendering:geometricPrecision; text-rendering:geometricPrecision; image-rendering:optimizeQuality; fill-rule:evenodd; clip-rule:evenodd"
viewBox="0 0 104 104"
 xmlns:xlink="http://www.w3.org/1999/xlink">
 <defs>
  <style type="text/css">
   <![CDATA[
    .fil0 {fill:#727271}
   ]]>
  </style>
 </defs>
 <g id="Layer_x0020_1">
  <metadata id="CorelCorpID_0Corel-Layer"/>
  <path class="fil0" d="M44 100c2,2 5,3 8,3 3,0 6,-1 8,-3 1,-2 3,-4 3,-7l0 -25c0,-3 -2,-5 -3,-7 -2,-2 -5,-3 -8,-3 -3,0 -6,1 -8,3 -1,2 -3,4 -3,7l0 25c0,3 2,5 3,7zm-13 -23c0,0 0,0 1,0 0,0 0,0 0,0 1,0 1,0 1,-1 0,0 0,-1 0,-1 0,0 0,-1 0,-1 -4,-3 -6,-6 -8,-10 -2,-4 -3,-8 -3,-13 0,-4 1,-8 2,-11 2,-4 4,-7 7,-10 2,-2 6,-5 9,-6 4,-2 8,-2 12,-2 8,0 16,3 21,8 5,6 9,13 9,21 0,4 -1,9 -3,12 -2,4 -4,8 -7,10l0 1c-1,0 -1,0 -1,1 0,0 0,1 0,1l1 0c0,0 0,1 1,1 0,0 1,0 1,-1l0 0c4,-3 7,-7 8,-11 2,-4 3,-9 3,-14 0,-9 -3,-17 -9,-23 -6,-7 -15,-10 -24,-10 -5,0 -9,1 -13,2 -4,2 -8,4 -11,8 -3,3 -5,6 -7,10 -2,4 -2,9 -2,13 0,5 1,10 3,14 2,5 5,8 8,12l0 0c1,0 1,0 1,0zm0 22c0,0 0,0 0,0 1,0 1,0 1,0 0,-1 1,-1 1,-1 0,-1 0,-1 0,-2 0,0 -1,0 -1,-1 -8,-4 -15,-10 -20,-17 -5,-8 -7,-17 -8,-26 0,-6 1,-12 4,-18 2,-6 5,-11 10,-15 4,-5 10,-9 15,-11 6,-2 13,-4 19,-4 13,0 25,6 34,14 8,9 14,21 14,34 0,9 -3,18 -8,25 -4,8 -11,14 -19,18l0 0c-1,0 -1,1 -1,1 0,0 0,1 0,1l0 0c0,1 0,1 1,1 0,0 1,0 1,0 9,-4 16,-11 21,-19 6,-8 8,-17 8,-27 0,-14 -5,-27 -15,-36 -9,-10 -22,-15 -36,-15 -7,0 -14,1 -20,4 -6,2 -12,6 -17,11 -5,5 -8,10 -11,17 -2,6 -4,12 -3,19 0,10 3,20 8,28 5,8 12,15 21,19 0,0 1,0 1,0zm13 -50c2,2 5,3 8,3 3,0 6,-1 8,-3 1,-2 3,-5 3,-7 0,-3 -2,-6 -3,-8 -2,-2 -5,-3 -8,-3 -3,0 -6,1 -8,3 -1,2 -3,5 -3,8 0,2 2,5 3,7zm3 -12c1,-2 3,-2 5,-2 2,0 4,0 5,2 1,1 2,3 2,5 0,1 -1,3 -2,4 -1,2 -3,2 -5,2 -2,0 -4,0 -5,-2 -1,-1 -2,-3 -2,-4 0,-2 1,-4 2,-5zm0 26c1,-1 3,-2 5,-2 2,0 4,1 5,2 1,1 2,3 2,5l0 25c0,2 -1,3 -2,5 -1,1 -3,2 -5,2 -2,0 -4,-1 -5,-2 -1,-2 -2,-3 -2,-5l0 -25c0,-2 1,-4 2,-5z"/>
  <path class="fil0" d="M44 100c2,2 5,3 8,3 3,0 6,-1 8,-3 1,-2 3,-4 3,-7l0 -25c0,-3 -2,-5 -3,-7 -2,-2 -5,-3 -8,-3 -3,0 -6,1 -8,3 -1,2 -3,4 -3,7l0 25c0,3 2,5 3,7zm-13 -23c0,0 0,0 1,0 0,0 0,0 0,0 1,0 1,0 1,-1 0,0 0,-1 0,-1 0,0 0,-1 0,-1 -4,-3 -6,-6 -8,-10 -2,-4 -3,-8 -3,-13 0,-4 1,-8 2,-11 2,-4 4,-7 7,-10 2,-2 6,-5 9,-6 4,-2 8,-2 12,-2 8,0 16,3 21,8 5,6 9,13 9,21 0,4 -1,9 -3,12 -2,4 -4,8 -7,10l0 1c-1,0 -1,0 -1,1 0,0 0,1 0,1l1 0c0,0 0,1 1,1 0,0 1,0 1,-1l0 0c4,-3 7,-7 8,-11 2,-4 3,-9 3,-14 0,-9 -3,-17 -9,-23 -6,-7 -15,-10 -24,-10 -5,0 -9,1 -13,2 -4,2 -8,4 -11,8 -3,3 -5,6 -7,10 -2,4 -2,9 -2,13 0,5 1,10 3,14 2,5 5,8 8,12l0 0c1,0 1,0 1,0zm0 22c0,0 0,0 0,0 1,0 1,0 1,0 0,-1 1,-1 1,-1 0,-1 0,-1 0,-2 0,0 -1,0 -1,-1 -8,-4 -15,-10 -20,-17 -5,-8 -7,-17 -8,-26 0,-6 1,-12 4,-18 2,-6 5,-11 10,-15 4,-5 10,-9 15,-11 6,-2 13,-4 19,-4 13,0 25,6 34,14 8,9 14,21 14,34 0,9 -3,18 -8,25 -4,8 -11,14 -19,18l0 0c-1,0 -1,1 -1,1 0,0 0,1 0,1l0 0c0,1 0,1 1,1 0,0 1,0 1,0 9,-4 16,-11 21,-19 6,-8 8,-17 8,-27 0,-14 -5,-27 -15,-36 -9,-10 -22,-15 -36,-15 -7,0 -14,1 -20,4 -6,2 -12,6 -17,11 -5,5 -8,10 -11,17 -2,6 -4,12 -3,19 0,10 3,20 8,28 5,8 12,15 21,19 0,0 1,0 1,0zm13 -50c2,2 5,3 8,3 3,0 6,-1 8,-3 1,-2 3,-5 3,-7 0,-3 -2,-6 -3,-8 -2,-2 -5,-3 -8,-3 -3,0 -6,1 -8,3 -1,2 -3,5 -3,8 0,2 2,5 3,7zm3 -12c1,-2 3,-2 5,-2 2,0 4,0 5,2 1,1 2,3 2,5 0,1 -1,3 -2,4 -1,2 -3,2 -5,2 -2,0 -4,0 -5,-2 -1,-1 -2,-3 -2,-4 0,-2 1,-4 2,-5zm0 26c1,-1 3,-2 5,-2 2,0 4,1 5,2 1,1 2,3 2,5l0 25c0,2 -1,3 -2,5 -1,1 -3,2 -5,2 -2,0 -4,-1 -5,-2 -1,-2 -2,-3 -2,-5l0 -25c0,-2 1,-4 2,-5z"/>
 </g>
</svg>
