<?xml version="1.0" encoding="UTF-8"?>
<!DOCTYPE svg PUBLIC "-//W3C//DTD SVG 1.1//EN" "http://www.w3.org/Graphics/SVG/1.1/DTD/svg11.dtd">
<!-- Creator: CorelDRAW X8 -->
<svg xmlns="http://www.w3.org/2000/svg" xml:space="preserve" width="480px" height="142px" version="1.1" style="shape-rendering:geometricPrecision; text-rendering:geometricPrecision; image-rendering:optimizeQuality; fill-rule:evenodd; clip-rule:evenodd"
viewBox="0 0 480 142"
 xmlns:xlink="http://www.w3.org/1999/xlink">
 <defs>
  <style type="text/css">
   <![CDATA[
    .fil1 {fill:#727271}
    .fil0 {fill:#727271;fill-rule:nonzero}
   ]]>
  </style>
 </defs>
 <g id="Layer_x0020_1">
  <metadata id="CorelCorpID_0Corel-Layer"/>
  <g id="_2090895464064">
   <path class="fil0" d="M5 35l8 0 0 28c4,0 7,-1 8,-2 2,-2 4,-5 6,-11 2,-4 4,-7 5,-9 1,-1 3,-3 5,-4 2,-1 4,-2 7,-2 3,0 5,0 5,0l0 8c0,0 -1,0 -2,-1 -1,0 -1,0 -2,0 -2,0 -4,1 -6,2 -1,2 -2,4 -4,9 -2,5 -4,9 -6,10 -1,1 -3,2 -5,3 4,1 8,5 12,12l13 21 -10 0 -11 -17c-3,-5 -5,-8 -7,-10 -2,-2 -5,-3 -8,-3l0 30 -8 0 0 -64z"/>
   <path id="1" class="fil0" d="M50 99l24 -64 9 0 26 64 -10 0 -7 -19 -27 0 -7 19 -8 0zm18 -26l21 0 -6 -18c-2,-5 -4,-10 -5,-13 -1,4 -2,8 -3,12l-7 19z"/>
   <polygon id="2" class="fil0" points="116,99 116,35 125,35 125,61 157,61 157,35 166,35 166,99 157,99 157,69 125,69 125,99 "/>
   <path id="3" class="fil0" d="M173 99l24 -64 10 0 25 64 -9 0 -8 -19 -26 0 -7 19 -9 0zm18 -26l22 0 -7 -18c-2,-5 -3,-10 -4,-13 -1,4 -2,8 -4,12l-7 19z"/>
   <path id="4" class="fil0" d="M248 35l39 0 0 56 5 0 0 23 -7 0 0 -15 -42 0 0 15 -8 0 0 -23 5 0c5,-7 8,-23 8,-46l0 -10zm30 8l-22 0 0 3c0,5 -1,13 -2,22 -1,10 -2,17 -5,23l29 0 0 -48z"/>
   <path id="5" class="fil0" d="M295 99l25 -64 9 0 26 64 -10 0 -7 -19 -27 0 -7 19 -9 0zm18 -26l22 0 -6 -18c-2,-5 -4,-10 -5,-13 -1,4 -2,8 -4,12l-7 19z"/>
   <path class="fil1" d="M396 63l78 0 0 15 -78 0 0 -15zm7 7l64 0 0 1 -64 0 0 -1z"/>
  </g>
 </g>
</svg>
