<?xml version="1.0" encoding="UTF-8"?>
<!DOCTYPE svg PUBLIC "-//W3C//DTD SVG 1.1//EN" "http://www.w3.org/Graphics/SVG/1.1/DTD/svg11.dtd">
<!-- Creator: CorelDRAW X8 -->
<svg xmlns="http://www.w3.org/2000/svg" xml:space="preserve" width="480px" height="142px" version="1.1" style="shape-rendering:geometricPrecision; text-rendering:geometricPrecision; image-rendering:optimizeQuality; fill-rule:evenodd; clip-rule:evenodd"
viewBox="0 0 480 142"
 xmlns:xlink="http://www.w3.org/1999/xlink">
 <defs>
  <style type="text/css">
   <![CDATA[
    .fil1 {fill:#727271}
    .fil0 {fill:#727271;fill-rule:nonzero}
   ]]>
  </style>
 </defs>
 <g id="Layer_x0020_1">
  <metadata id="CorelCorpID_0Corel-Layer"/>
  <g id="_2125988265456">
   <path class="fil0" d="M52 80l8 2c-1,7 -5,12 -9,16 -5,3 -10,5 -17,5 -7,0 -12,-1 -17,-4 -4,-3 -7,-7 -9,-12 -3,-6 -4,-11 -4,-17 0,-7 2,-13 4,-18 3,-5 6,-8 11,-11 5,-2 10,-4 15,-4 7,0 12,2 16,5 5,3 8,8 9,14l-8 2c-1,-5 -4,-8 -6,-10 -3,-2 -7,-3 -11,-3 -5,0 -9,1 -12,3 -3,2 -6,6 -7,9 -1,4 -2,8 -2,13 0,5 1,10 2,14 2,4 4,7 8,9 3,2 7,3 10,3 5,0 9,-2 12,-4 4,-3 6,-7 7,-12z"/>
   <path id="1" class="fil0" d="M100 96c-3,3 -6,4 -8,5 -3,1 -6,2 -9,2 -5,0 -9,-1 -12,-4 -2,-2 -4,-5 -4,-9 0,-2 1,-4 2,-6 1,-2 2,-4 4,-5 1,-1 3,-2 5,-2 2,-1 4,-1 7,-2 7,0 11,-1 14,-2 0,-1 0,-2 0,-2 0,-3 0,-6 -2,-7 -2,-2 -5,-3 -9,-3 -4,0 -6,1 -8,2 -2,2 -3,4 -4,7l-8 -1c1,-3 2,-6 4,-8 2,-2 4,-3 7,-4 3,-2 6,-2 10,-2 4,0 7,0 10,1 2,1 4,2 5,4 2,1 2,3 3,5 0,1 0,4 0,7l0 11c0,7 0,11 1,13 0,2 1,4 2,6l-9 0c0,-2 -1,-4 -1,-6zm-1 -17c-3,1 -7,2 -12,3 -4,0 -6,1 -7,1 -2,1 -3,2 -3,3 -1,1 -2,2 -2,4 0,2 1,3 3,5 1,1 4,2 7,2 3,0 5,-1 8,-2 2,-1 4,-3 5,-6 1,-1 1,-4 1,-7l0 -3z"/>
   <path id="2" class="fil0" d="M119 102l0 -46 7 0 0 6c4,-5 8,-7 15,-7 3,0 5,0 8,1 2,1 4,3 5,4 1,2 2,4 2,6 0,2 1,4 1,8l0 28 -8 0 0 -28c0,-3 -1,-6 -1,-7 -1,-2 -2,-3 -3,-4 -2,-1 -4,-1 -6,-1 -3,0 -6,1 -8,3 -3,2 -4,6 -4,12l0 25 -8 0z"/>
   <path id="3" class="fil0" d="M199 96c-3,3 -6,4 -9,5 -2,1 -5,2 -8,2 -5,0 -9,-1 -12,-4 -3,-2 -4,-5 -4,-9 0,-2 0,-4 1,-6 2,-2 3,-4 5,-5 1,-1 3,-2 5,-2 2,-1 4,-1 7,-2 6,0 11,-1 14,-2 0,-1 0,-2 0,-2 0,-3 -1,-6 -2,-7 -2,-2 -5,-3 -9,-3 -4,0 -6,1 -8,2 -2,2 -3,4 -4,7l-8 -1c1,-3 2,-6 4,-8 1,-2 4,-3 7,-4 3,-2 6,-2 10,-2 4,0 7,0 10,1 2,1 4,2 5,4 1,1 2,3 3,5 0,1 0,4 0,7l0 11c0,7 0,11 0,13 1,2 1,4 2,6l-8 0c-1,-2 -1,-4 -1,-6zm-1 -17c-3,1 -7,2 -13,3 -3,0 -5,1 -7,1 -1,1 -2,2 -3,3 0,1 -1,2 -1,4 0,2 1,3 3,5 1,1 4,2 7,2 3,0 5,-1 8,-2 2,-1 4,-3 5,-6 1,-1 1,-4 1,-7l0 -3z"/>
   <path id="4" class="fil0" d="M248 102l0 -6c-3,5 -7,7 -13,7 -4,0 -7,-1 -10,-3 -3,-2 -6,-5 -7,-9 -2,-3 -3,-7 -3,-12 0,-5 1,-9 2,-13 2,-3 4,-6 7,-8 3,-2 7,-3 11,-3 2,0 5,0 7,2 2,1 4,2 5,4l0 -23 8 0 0 64 -7 0zm-25 -23c0,6 1,10 4,13 2,3 5,5 9,5 3,0 6,-2 8,-5 3,-2 4,-7 4,-12 0,-7 -1,-11 -4,-14 -2,-3 -5,-5 -9,-5 -3,0 -6,2 -8,5 -3,2 -4,7 -4,13z"/>
   <path id="5" class="fil0" d="M297 96c-2,3 -5,4 -8,5 -3,1 -5,2 -9,2 -5,0 -8,-1 -11,-4 -3,-2 -4,-5 -4,-9 0,-2 0,-4 1,-6 1,-2 3,-4 4,-5 2,-1 4,-2 6,-2 1,-1 4,-1 7,-2 6,0 11,-1 14,-2 0,-1 0,-2 0,-2 0,-3 -1,-6 -2,-7 -2,-2 -5,-3 -9,-3 -4,0 -7,1 -8,2 -2,2 -3,4 -4,7l-8 -1c1,-3 2,-6 3,-8 2,-2 4,-3 7,-4 3,-2 7,-2 11,-2 4,0 7,0 10,1 2,1 4,2 5,4 1,1 2,3 2,5 1,1 1,4 1,7l0 11c0,7 0,11 0,13 1,2 1,4 2,6l-8 0c-1,-2 -1,-4 -2,-6zm0 -17c-3,1 -7,2 -13,3 -3,0 -5,1 -7,1 -1,1 -2,2 -3,3 -1,1 -1,2 -1,4 0,2 1,3 2,5 2,1 4,2 7,2 3,0 6,-1 8,-2 3,-1 4,-3 6,-6 0,-1 1,-4 1,-7l0 -3z"/>
   <path class="fil1" d="M398 66l78 0 0 16 -78 0 0 -16zm7 8l64 0 0 0 -64 0 0 0z"/>
  </g>
 </g>
</svg>
