<?xml version="1.0" encoding="UTF-8"?>
<!DOCTYPE svg PUBLIC "-//W3C//DTD SVG 1.1//EN" "http://www.w3.org/Graphics/SVG/1.1/DTD/svg11.dtd">
<!-- Creator: CorelDRAW X8 -->
<svg xmlns="http://www.w3.org/2000/svg" xml:space="preserve" width="71px" height="60px" version="1.1" style="shape-rendering:geometricPrecision; text-rendering:geometricPrecision; image-rendering:optimizeQuality; fill-rule:evenodd; clip-rule:evenodd"
viewBox="0 0 71 60"
 xmlns:xlink="http://www.w3.org/1999/xlink">
 <defs>
  <style type="text/css">
   <![CDATA[
    .fil0 {fill:#FEFEFE}
   ]]>
  </style>
 </defs>
 <g id="Layer_x0020_1">
  <metadata id="CorelCorpID_0Corel-Layer"/>
  <g id="_2035000370400">
   <path class="fil0" d="M66 6l2 5c0,1 1,1 1,1 1,0 2,0 2,-1 0,0 0,-1 0,-1l-3 -9c0,-1 -1,-1 -2,-1 0,0 0,0 0,0l-10 5c0,0 0,1 0,1 0,1 0,2 1,2 0,0 1,0 1,0l5 -3c-13,24 -38,40 -63,40l0 3c27,0 52,-17 66,-42z"/>
   <path class="fil0" d="M39 42l-7 0c0,0 -1,0 -1,1l0 16c0,1 1,1 1,1l7 0c0,0 1,0 1,-1l0 -16c0,-1 -1,-1 -1,-1zm-2 15l-3 0 0 -12 3 0 0 12z"/>
   <path class="fil0" d="M54 32l-6 0c-1,0 -2,1 -2,2l0 25c0,1 1,1 2,1l6 0c1,0 2,0 2,-1l0 -25c0,-1 -1,-2 -2,-2zm-2 25l-3 0 0 -22 3 0 0 22z"/>
   <path class="fil0" d="M69 15l-6 0c-1,0 -1,1 -1,2l0 42c0,1 0,1 1,1l6 0c1,0 2,0 2,-1l0 -42c0,-1 -1,-2 -2,-2l0 0zm-1 42l-3 0 0 -38 3 0 0 38z"/>
   <path class="fil0" d="M23 48l-6 0c-1,0 -2,1 -2,1l0 10c0,1 1,1 2,1l6 0c1,0 2,0 2,-1l0 -10c0,0 -1,-1 -2,-1zm-1 9l-3 0 0 -6 3 0 0 6z"/>
   <path class="fil0" d="M8 51l-6 0c-1,0 -2,0 -2,1l0 7c0,1 1,1 2,1l6 0c1,0 1,0 1,-1l0 -7c0,-1 0,-1 -1,-1zm-2 6l-3 0 0 -3 3 0 0 3z"/>
  </g>
 </g>
</svg>
