<?xml version="1.0" encoding="UTF-8"?>
<!DOCTYPE svg PUBLIC "-//W3C//DTD SVG 1.1//EN" "http://www.w3.org/Graphics/SVG/1.1/DTD/svg11.dtd">
<!-- Creator: CorelDRAW X8 -->
<svg xmlns="http://www.w3.org/2000/svg" xml:space="preserve" width="71px" height="71px" version="1.1" style="shape-rendering:geometricPrecision; text-rendering:geometricPrecision; image-rendering:optimizeQuality; fill-rule:evenodd; clip-rule:evenodd"
viewBox="0 0 71 71"
 xmlns:xlink="http://www.w3.org/1999/xlink">
 <defs>
  <style type="text/css">
   <![CDATA[
    .fil0 {fill:#FEFEFE}
   ]]>
  </style>
 </defs>
 <g id="Layer_x0020_1">
  <metadata id="CorelCorpID_0Corel-Layer"/>
  <path class="fil0" d="M36 71c-5,0 -10,-1 -14,-3 -4,-1 -8,-4 -12,-7 -3,-4 -6,-8 -7,-12 -2,-4 -3,-9 -3,-13l0 0 0 -1 0 0 0 0c0,0 0,-1 1,-1 0,0 0,-1 1,-1 0,0 0,0 1,1l10 0c1,0 1,0 1,0 1,0 1,1 1,2 0,0 0,1 -1,1 0,0 0,0 -1,0l-9 0c0,4 1,7 2,11 2,3 4,7 7,10 3,3 7,5 10,7 4,1 8,2 13,2 4,0 8,-1 12,-2 3,-2 7,-4 10,-7 3,-3 5,-7 7,-10 1,-4 2,-8 2,-13 0,-4 -1,-8 -2,-12 -2,-3 -4,-7 -7,-10 -3,-3 -7,-5 -10,-7 -4,-1 -7,-2 -11,-2l0 23c0,0 0,1 0,1 0,1 -1,1 -1,1 -1,0 -2,0 -2,-1 0,0 0,-1 0,-1l0 -25 0 0c0,-1 0,-1 0,-1 0,-1 1,-1 2,-1l0 0 0 0 0 0c4,0 9,1 13,3 4,1 8,4 12,7 3,4 6,8 7,12 2,4 3,9 3,14 0,4 -1,9 -3,13 -1,4 -4,8 -7,12 -4,3 -8,6 -12,7 -4,2 -9,3 -13,3zm-20 -17c-1,0 -1,0 -1,0 -1,0 -1,-1 -1,-1l0 1 0 -1c0,0 0,0 0,0 0,-1 0,-1 0,-1 0,-1 0,-1 0,-2l0 0c2,-2 7,-8 11,-12 3,-3 5,-5 5,-6l0 0c1,0 2,-1 2,-1 1,0 1,0 2,0 1,0 2,0 3,0 1,1 1,1 2,2l0 0c1,1 1,3 1,4 0,2 -1,3 -2,4 -1,1 -3,2 -7,4 -5,3 -11,7 -14,9 -1,0 -1,0 -1,0zm18 -19c0,0 0,0 -1,0 0,0 0,0 0,0 -1,1 -2,3 -5,5 -1,2 -2,3 -4,5l6 -3c3,-2 5,-3 5,-4 1,0 1,0 1,-1 0,0 0,-1 0,-1l0 0c0,-1 -1,-1 -1,-1 0,0 -1,0 -1,0z"/>
 </g>
</svg>
