<?xml version="1.0" encoding="UTF-8"?>
<!DOCTYPE svg PUBLIC "-//W3C//DTD SVG 1.1//EN" "http://www.w3.org/Graphics/SVG/1.1/DTD/svg11.dtd">
<!-- Creator: CorelDRAW X8 -->
<svg xmlns="http://www.w3.org/2000/svg" xml:space="preserve" width="104px" height="61px" version="1.1" style="shape-rendering:geometricPrecision; text-rendering:geometricPrecision; image-rendering:optimizeQuality; fill-rule:evenodd; clip-rule:evenodd"
viewBox="0 0 104 61"
 xmlns:xlink="http://www.w3.org/1999/xlink">
 <defs>
  <style type="text/css">
   <![CDATA[
    .fil0 {fill:#FEFEFE}
   ]]>
  </style>
 </defs>
 <g id="Layer_x0020_1">
  <metadata id="CorelCorpID_0Corel-Layer"/>
  <path class="fil0" d="M95 21c-1,2 -1,3 -3,3 4,1 7,3 9,6 2,3 3,6 3,10 0,1 0,1 0,1 -1,1 -1,1 -1,1 -1,0 -1,0 -1,-1 -1,0 -1,0 -1,-1 0,-4 -1,-7 -4,-10 -2,-2 -6,-4 -10,-4 -4,0 -7,2 -10,4 -3,3 -4,6 -4,10 2,3 4,6 6,9 1,3 2,7 2,11 0,0 -1,1 -1,1 0,0 0,0 -1,0 0,0 0,0 -1,0 0,0 0,-1 0,-1 0,-7 -3,-14 -8,-19 -4,-4 -11,-7 -18,-7 -7,0 -14,3 -18,7 -5,5 -8,12 -8,19 0,0 0,1 0,1 -1,0 -1,0 -1,0 -1,0 -1,0 -1,0 0,0 -1,-1 -1,-1 0,-4 1,-8 2,-11 2,-3 4,-6 6,-9 0,-4 -1,-7 -4,-10 -3,-2 -6,-4 -10,-4 -4,0 -8,2 -10,4 -3,3 -4,6 -4,10 0,1 0,1 -1,1 0,1 0,1 -1,1 0,0 0,0 -1,-1 0,0 0,0 0,-1 0,-4 1,-7 3,-10 2,-3 5,-5 9,-6 -2,0 -2,-1 -3,-3 -1,-1 -1,-2 -1,-4 0,-3 1,-5 2,-7 2,-1 4,-2 7,-2 2,0 5,1 6,2 2,2 3,4 3,7 0,2 0,3 -1,4 -1,2 -2,3 -3,3 3,1 6,3 8,5 2,3 3,6 4,9 1,-2 3,-3 5,-4 2,-1 4,-1 6,-2 -3,-1 -5,-3 -7,-6 -2,-2 -3,-6 -3,-9 0,-5 2,-9 5,-12 3,-3 7,-5 12,-5 5,0 9,2 12,5 3,3 5,7 5,12 0,3 -1,7 -3,9 -2,3 -4,5 -7,6 2,1 4,1 6,2 2,1 4,2 5,4 1,-3 2,-6 4,-9 2,-2 5,-4 8,-5 -1,0 -2,-1 -3,-3 -1,-1 -1,-2 -1,-4 0,-3 1,-5 3,-7 1,-1 4,-2 6,-2 3,0 5,1 7,2 1,2 2,4 2,7 0,2 0,3 -1,4zm-83 -9c-1,2 -2,3 -2,5 0,2 1,3 2,4 2,2 3,2 5,2 2,0 3,0 4,-2 2,-1 2,-2 2,-4 0,-2 0,-3 -2,-5 -1,-1 -2,-2 -4,-2 -2,0 -3,1 -5,2zm30 -5c-3,2 -4,6 -4,10 0,4 1,7 4,10 3,3 6,4 10,4 4,0 7,-1 10,-4 3,-3 4,-6 4,-10 0,-4 -1,-8 -4,-10 -3,-3 -6,-4 -10,-4 -4,0 -7,1 -10,4zm41 5c-2,2 -2,3 -2,5 0,2 0,3 2,4 1,2 2,2 4,2 2,0 3,0 5,-2 1,-1 2,-2 2,-4 0,-2 -1,-3 -2,-5 -2,-1 -3,-2 -5,-2 -2,0 -3,1 -4,2z"/>
 </g>
</svg>
