<?xml version="1.0" encoding="UTF-8"?>
<!DOCTYPE svg PUBLIC "-//W3C//DTD SVG 1.1//EN" "http://www.w3.org/Graphics/SVG/1.1/DTD/svg11.dtd">
<!-- Creator: CorelDRAW X8 -->
<svg xmlns="http://www.w3.org/2000/svg" xml:space="preserve" width="71px" height="71px" version="1.1" style="shape-rendering:geometricPrecision; text-rendering:geometricPrecision; image-rendering:optimizeQuality; fill-rule:evenodd; clip-rule:evenodd"
viewBox="0 0 71 71"
 xmlns:xlink="http://www.w3.org/1999/xlink">
 <defs>
  <style type="text/css">
   <![CDATA[
    .fil0 {fill:#FEFEFE}
    .fil1 {fill:#FEFEFE;fill-rule:nonzero}
   ]]>
  </style>
 </defs>
 <g id="Layer_x0020_1">
  <metadata id="CorelCorpID_0Corel-Layer"/>
  <g id="_2034997525872">
   <path class="fil0" d="M65 15c-1,1 -1,2 -2,3 3,5 5,11 5,17 0,19 -14,33 -33,33 -6,0 -12,-2 -17,-5 -1,1 -2,1 -3,2 6,4 13,6 20,6 20,0 36,-16 36,-36 0,-7 -2,-14 -6,-20z"/>
   <path class="fil0" d="M12 59c-6,-6 -9,-15 -9,-23 0,-19 14,-33 32,-33 9,0 18,3 24,9 0,-1 1,-2 1,-2 -6,-6 -15,-10 -25,-10 -19,0 -35,16 -35,36 0,9 4,18 10,24 0,0 1,-1 2,-1z"/>
   <path class="fil0" d="M28 49c-5,4 -9,8 -13,10 -8,5 -11,6 -12,5 0,-1 0,-3 2,-7 -1,-1 -2,-2 -2,-3 -3,5 -4,10 -2,12 1,0 2,1 3,1 6,0 16,-7 25,-16 0,0 -1,-1 -1,-2z"/>
   <path class="fil0" d="M63 3c0,0 1,0 1,0 0,1 0,4 -5,12 -2,4 -5,8 -9,12 0,1 1,2 1,4 10,-12 19,-26 15,-30 -2,-2 -7,-1 -12,2 1,1 2,1 3,2 3,-2 5,-2 6,-2z"/>
   <path class="fil1" d="M45 29c0,0 0,0 -1,-1l0 0 0 0c0,-2 -1,-3 -3,-4 -2,-1 -3,-2 -6,-2 -2,0 -3,1 -5,2 -2,1 -3,2 -3,4l0 0c0,0 -1,1 -1,1 0,0 0,0 0,0l0 0 0 0c0,1 0,1 0,1 0,1 0,1 0,2 0,0 0,0 0,0 0,1 0,1 0,1l0 0 0 1c0,0 0,0 0,0 0,0 0,0 0,0 1,2 1,4 3,6 1,3 3,6 4,8l0 0 0 0c1,0 1,1 1,1 1,1 1,1 1,1l0 0 0 1 1 -1 0 0c0,0 0,0 1,-1 0,0 0,-1 1,-1l0 0 0 0c1,-2 3,-5 4,-8 2,-2 2,-4 3,-6l0 -1 0 0 0 0c0,0 0,0 0,-1 0,0 0,0 0,-1l0 0c0,0 0,0 0,-1 0,0 0,0 0,-1l0 0 0 0zm2 -2c0,1 0,1 1,2 0,0 0,0 0,1 0,0 0,1 0,2 0,0 0,0 0,1l0 0c0,0 0,0 0,1l0 0c0,0 0,0 0,0 -1,3 -2,5 -3,7 -1,3 -3,6 -5,9l0 0 0 0c0,0 -1,0 -1,1 0,0 0,1 -1,1l-2 4 -3 -4 0 0c-1,0 -1,-1 -1,-1 0,0 -1,-1 -1,-1l0 0 0 0c-2,-3 -4,-6 -5,-9 -1,-2 -2,-4 -3,-7l0 0 0 0c0,0 0,0 0,0 0,-1 0,-1 0,-1 0,-1 0,-1 0,-1 0,-1 0,-1 0,-2 0,-1 0,-1 0,-2 0,0 1,0 1,0 0,0 0,-1 0,-1 1,-2 2,-4 4,-6 2,-1 5,-2 7,-2 3,0 6,1 8,2 2,2 3,4 4,6l0 0zm-21 7l0 0 0 0zm16 -1c0,2 -1,3 -2,4 0,1 -2,1 -3,2 -1,0 -2,0 -3,0 -1,-1 -3,-1 -3,-2 -1,-1 -2,-2 -2,-4 -1,-1 -1,-2 0,-3 0,-1 1,-2 2,-3l0 0c0,-1 2,-2 3,-2 1,0 2,0 3,0 1,0 3,1 3,2l0 0c1,1 2,2 2,3 1,1 1,2 0,3zm-4 2c1,-1 1,-1 1,-2 1,-1 1,-1 0,-2 0,-1 0,-1 -1,-2 0,0 -1,-1 -2,-1 0,0 -1,0 -1,0 -1,0 -2,1 -2,1l0 0c-1,1 -1,1 -1,2 -1,1 -1,1 0,2 0,1 0,1 1,2l0 0c0,0 1,1 2,1 0,0 1,0 1,0 1,0 2,-1 2,-1z"/>
  </g>
 </g>
</svg>
