<?xml version="1.0" encoding="UTF-8"?>
<!DOCTYPE svg PUBLIC "-//W3C//DTD SVG 1.1//EN" "http://www.w3.org/Graphics/SVG/1.1/DTD/svg11.dtd">
<!-- Creator: CorelDRAW X8 -->
<svg xmlns="http://www.w3.org/2000/svg" fill="#fff" xml:space="preserve" width="14px" height="15px" version="1.1" style="shape-rendering:geometricPrecision; text-rendering:geometricPrecision; image-rendering:optimizeQuality; fill-rule:evenodd; clip-rule:evenodd"
viewBox="0 0 14 15"
 xmlns:xlink="http://www.w3.org/1999/xlink">

 <g id="Layer_x0020_1">
  <metadata id="CorelCorpID_0Corel-Layer"/>
  <path class="fil0" d="M10 5c0,-1 0,-1 0,-1 0,0 0,0 0,-1 0,0 0,0 0,0 0,0 0,-1 -1,-1 0,0 0,0 0,0 0,0 0,0 -1,-1 0,0 0,0 0,0 -1,0 -1,0 -1,0 0,0 0,0 -1,0 0,0 0,0 0,0 -1,1 -1,1 -1,1 0,0 0,0 0,0 -1,0 -1,1 -1,1 0,0 0,0 0,0 0,1 0,1 0,1 0,0 0,0 0,1 0,0 0,0 0,0 0,0 0,1 0,1 0,0 0,0 0,0 0,1 0,1 1,1 0,0 0,0 0,0 0,1 0,1 1,1 0,0 0,0 0,0 1,0 1,0 1,0 0,0 0,0 1,0 0,0 0,0 0,0 1,0 1,0 1,-1 0,0 0,0 0,0 1,0 1,-1 1,-1 0,0 0,-1 0,-1 0,0 0,0 0,0zm1 3c0,0 0,0 0,0 1,0 1,0 1,0 0,0 0,0 0,1 0,0 0,0 1,0 0,0 0,0 0,1 0,0 1,0 1,0 0,1 0,1 0,1 0,1 0,1 0,1l0 3 -14 0 0 -3c0,0 0,0 0,-1 0,0 0,0 0,-1 0,0 1,0 1,0 0,-1 0,-1 0,-1 1,0 1,0 1,0 0,-1 0,-1 0,-1 0,0 0,0 1,0 0,0 0,0 0,0l0 0 0 -1c0,0 0,0 0,0 0,-1 0,-1 0,-1 0,0 -1,0 -1,-1 0,0 0,0 0,0 0,-1 0,-1 0,-1 1,-1 1,-1 1,-1 0,0 0,-1 0,-1 0,0 1,0 1,-1 0,0 0,0 0,0 1,0 1,-1 1,-1 1,0 1,0 1,0 0,0 1,0 1,0 0,0 1,0 1,0 0,0 0,0 1,0 0,0 0,1 1,1 0,0 0,0 0,0 0,1 1,1 1,1 0,0 0,1 0,1 0,0 0,0 1,1 0,0 0,0 0,1 0,0 0,0 0,0 0,1 -1,1 -1,1 0,0 0,0 0,1 0,0 0,0 0,0l0 1 0 0zm-6 1c-1,0 -1,0 -1,0 0,0 0,0 -1,0 0,0 0,0 0,0 0,0 -1,1 -1,1 0,0 0,0 0,0 0,1 0,1 -1,1 0,0 0,0 0,1 0,0 0,0 0,0l0 1 0 0 0 1 12 0 0 -1 0 0 0 -1c0,0 0,0 0,0 0,-1 0,-1 0,-1 -1,0 -1,0 -1,-1 0,0 0,0 0,0 0,0 -1,-1 -1,-1 0,0 0,0 0,0 -1,0 -1,0 -1,0 0,0 0,0 -1,0l0 0 0 0c0,0 0,0 0,0 -1,0 -1,0 -1,0 0,0 0,0 0,0 -1,0 -1,0 -1,0 0,0 0,0 -1,0 0,0 0,0 0,0 0,0 0,0 -1,0 0,0 0,0 0,0l0 0 0 0z"/>
 </g>
</svg>
