<?xml version="1.0" encoding="UTF-8"?>
<!DOCTYPE svg PUBLIC "-//W3C//DTD SVG 1.1//EN" "http://www.w3.org/Graphics/SVG/1.1/DTD/svg11.dtd">
<!-- Creator: CorelDRAW X8 -->
<svg xmlns="http://www.w3.org/2000/svg" xml:space="preserve" width="295px" height="47px" version="1.1" style="shape-rendering:geometricPrecision; text-rendering:geometricPrecision; image-rendering:optimizeQuality; fill-rule:evenodd; clip-rule:evenodd"
viewBox="0 0 295 47"
 xmlns:xlink="http://www.w3.org/1999/xlink">
 <defs>
  <style type="text/css">
   <![CDATA[
    .fil0 {fill:#FEFEFE}
    .fil1 {fill:#FEFEFE;fill-rule:nonzero}
   ]]>
  </style>
 </defs>
 <g id="Layer_x0020_1">
  <metadata id="CorelCorpID_0Corel-Layer"/>
  <g id="_3044705208464">
   <path class="fil0" d="M78 2l-22 0 0 0 -55 0 0 0c-1,4 2,8 6,8l35 0 -1 4 0 1 -3 12 -1 5 -2 7c0,3 2,6 5,6l28 0c3,0 6,-3 7,-6l1 -3 1 -6 0 -1c0,0 0,-1 -1,-1l-5 0c0,0 -1,1 -1,1l0 1 -2 5c0,1 -1,2 -2,2l-5 0 0 -2c0,-1 0,-2 -1,-2l-7 0c-1,0 -2,1 -2,2l-1 2 -5 0c-1,0 -2,-1 -1,-2l5 -23c0,-1 1,-2 2,-2l3 0 18 0c1,0 2,1 2,2l-1 5 0 0 0 0c0,1 0,1 1,1l4 0c1,0 2,0 2,-1l0 0 0 0 1 -7 1 -3c1,-3 -1,-5 -4,-5zm-68 6l0 0zm3 -3l0 0 1 0c0,0 0,0 0,0 0,0 0,0 0,0 0,0 0,0 0,0 0,0 0,0 0,0l-1 1 0 0 0 0 0 2c0,0 0,0 0,0 0,0 0,0 0,0l0 0 0 0 0 0 -1 0 -1 -1 0 0 0 0 -1 1c0,0 0,0 0,0 -1,0 -1,0 -1,0 0,0 0,0 0,0 0,0 0,0 0,0l1 -2 0 0 0 0 -1 -1 0 0c0,0 0,0 0,0l0 0 0 0 0 0c0,0 0,0 0,0 0,0 0,0 0,0l2 0 0 0 0 0 1 -2c0,0 0,0 0,0 0,0 0,0 0,0 0,0 0,0 0,0 0,0 0,0 0,0l1 2 0 0zm7 3l0 0zm3 -3l1 0 1 0c0,0 0,0 0,0 0,0 0,0 0,0 0,0 0,0 0,0 0,0 0,0 0,0l-1 1 0 0 0 0 0 2c0,0 0,0 0,0 0,0 0,0 0,0l-1 0 0 0 0 0 0 0 -1 -1 0 0 0 0 -2 1c0,0 0,0 0,0 0,0 0,0 0,0 0,0 0,0 0,0 0,0 0,0 0,0l1 -2 0 0 0 0 -1 -1 0 0c0,0 0,0 0,0l0 0 0 0 0 0c0,0 0,0 0,0 0,0 0,0 0,0l2 0 0 0 0 0 1 -2c0,0 0,0 0,0 0,0 0,0 0,0 0,0 0,0 0,0 0,0 0,0 0,0l0 2 0 0zm8 3l0 0zm3 -3l0 0 2 0c0,0 0,0 0,0 0,0 0,0 0,0 0,0 0,0 0,0 0,0 0,0 0,0l-2 1 0 0 0 0 0 2c0,0 0,0 0,0 0,0 0,0 0,0l0 0 0 0 0 0 0 0 -1 -1 0 0 0 0 -2 1c0,0 0,0 0,0 0,0 0,0 0,0 0,0 0,0 0,0 0,0 0,0 0,0l0 -2 0 0 0 0 0 -1 -1 0c0,0 0,0 0,0l0 0 0 0 1 0c0,0 0,0 0,0 0,0 0,0 0,0l1 0 0 0 0 0 1 -2c0,0 0,0 0,0 1,0 1,0 1,0 0,0 0,0 0,0 0,0 0,0 0,0l0 2 0 0zm30 12l-7 0c-1,0 -2,1 -2,1l-2 6c0,1 1,2 1,2l8 0c1,0 1,-1 2,-2l1 -6c0,0 0,-1 -1,-1z"/>
   <path class="fil1" d="M114 29c0,0 0,0 1,0l0 -3c0,0 0,0 0,0l-11 0 2 -11 10 0c1,0 1,0 1,-1l1 -2c0,-1 -1,-1 -1,-1l-13 0c-1,0 -2,1 -2,2l-3 14c0,2 1,2 2,2l13 0zm17 -8l-8 0 1 -6 8 0 -1 6zm-2 8c0,0 0,0 1,0l2 0c1,0 1,0 1,0l3 -16c0,-1 -1,-2 -2,-2l-11 0c-1,0 -2,1 -3,2l-2 16c0,0 0,0 0,0l3 0c0,0 0,0 0,0l1 -5 8 0 -1 5zm12 -5l8 0c2,0 3,-1 4,-3l1 -7c0,-2 -1,-3 -3,-3l-11 0c-1,0 -1,0 -1,1l-3 17c0,0 0,0 1,0l2 0c1,0 1,0 1,0l1 -5zm8 -4l-8 0 1 -5 8 0 -1 5zm12 -8c0,-1 0,-1 0,-1l-3 0c0,0 0,0 0,1l-4 17c0,0 1,0 1,0l3 0c0,0 0,0 0,0l3 -17zm3 -1c0,0 -1,0 -1,1l0 2c0,1 0,1 0,1l5 0 -2 14c0,0 0,0 0,0l3 0c0,0 1,0 1,0l2 -14 5 0c1,0 1,0 1,-1l0 -2c1,-1 0,-1 0,-1l-14 0zm26 10l-7 0 1 -6 7 0 -1 6zm-1 8c0,0 0,0 0,0l3 0c0,0 1,0 1,0l2 -16c1,-1 0,-2 -1,-2l-12 0c-1,0 -2,1 -2,2l-3 16c0,0 0,0 1,0l2 0c1,0 1,0 1,0l1 -5 8 0 -1 5zm25 -17c0,-1 0,-1 0,-1l-3 0c0,0 -1,0 -1,1l-2 11 -5 -11c0,-1 -1,-1 -1,-1l-1 0c-1,0 -2,1 -2,2l-3 16c0,0 0,0 0,0l3 0c0,0 0,0 1,0l2 -11 5 11c0,0 0,0 1,0l1 0c1,0 2,0 2,-2l3 -15zm22 9l-7 0 1 -6 7 0 -1 6zm-1 8c0,0 0,0 0,0l3 0c0,0 1,0 1,0l2 -16c1,-1 0,-2 -1,-2l-12 0c-1,0 -2,1 -2,2l-3 16c0,0 1,0 1,0l2 0c1,0 1,0 1,0l1 -5 8 0 -1 5zm14 -17c0,-1 -1,-1 -1,-1l-3 0c0,0 0,0 0,1l-3 15c0,2 0,2 2,2l11 0c1,0 2,0 2,-2l3 -15c0,-1 0,-1 0,-1l-3 0c0,0 -1,0 -1,1l-2 14 -8 0 3 -14zm14 -1c-1,0 -1,0 -1,1l0 2c-1,1 0,1 0,1l5 0 -2 14c0,0 0,0 0,0l3 0c0,0 0,0 0,0l3 -14 5 0c0,0 1,0 1,-1l0 -2c0,-1 0,-1 0,-1l-14 0zm31 2c0,-1 0,-2 -1,-2l-12 0c-1,0 -2,1 -2,2l-3 14c0,2 1,2 2,2l11 0c1,0 2,0 3,-2l2 -14zm-6 13l-8 0 2 -11 8 0 -2 11z"/>
   <path class="fil1" d="M107 41c-1,0 -1,0 -1,0l0 2c0,0 0,0 0,0l1 0c0,0 0,0 0,0l0 -1 5 0 -1 1c0,0 0,0 1,0l0 0c0,0 0,0 0,0l1 -2c0,0 0,0 0,0l-1 0 0 -4c0,0 0,0 0,0l-2 0c0,0 0,0 0,0l-2 4 -1 0zm3 -3l1 0 0 3 -2 0 1 -3zm8 -1c0,0 0,0 -1,0l-3 0c0,0 0,0 0,0l-1 4c0,1 0,1 0,1l4 0c0,0 0,0 0,-1l1 -4zm-2 4l-2 0 1 -3 2 0 -1 3zm6 1c0,0 0,0 0,0l0 -1c0,0 0,0 0,0l-3 0 1 -3 3 0c0,0 0,0 0,0l0 -1c0,0 0,0 0,0l-4 0c0,0 0,0 0,0l-1 4c0,1 0,1 0,1l4 0zm2 -5c0,0 0,0 0,0l-1 1c0,0 1,0 1,0l1 0 -1 4c0,0 0,0 0,0l1 0c0,0 0,0 0,0l1 -4 2 0c0,0 0,0 0,0l0 -1c0,0 0,0 0,0l-4 0zm7 2l-2 0 0 -1 2 0 0 1zm0 3c0,0 0,0 0,0l1 0c0,0 0,0 0,0l1 -5c0,0 -1,0 -1,0l-3 0c0,0 -1,0 -1,0l0 5c-1,0 0,0 0,0l0 0c0,0 1,0 1,0l0 -2 2 0 0 2zm5 -3l-2 0 0 -1 3 0 -1 1zm0 2l-2 0 0 -1 2 0 0 1zm0 1c0,0 1,-1 1,-1l0 -1c0,0 0,-1 -1,-1l0 0c1,0 1,0 1,-1l1 0c0,-1 -1,-1 -1,-1l-3 0c0,0 -1,0 -1,0l0 5c0,0 0,0 0,0l3 0zm4 -3l-1 0 1 -2c0,0 0,0 -1,0l0 0c0,0 0,0 0,0l-1 5c0,0 0,0 0,0l1 0c0,0 0,0 0,0l0 -2 0 0 2 2c0,0 0,0 0,0l1 0c0,0 0,0 0,0l-2 -3 3 -2c0,0 0,0 -1,0l0 0c0,0 -1,0 -1,0l-1 2zm6 0l-2 0 0 -1 2 0 0 1zm0 3c0,0 0,0 0,0l1 0c0,0 0,0 0,0l1 -5c0,0 -1,0 -1,0l-3 0c0,0 -1,0 -1,0l-1 5c0,0 1,0 1,0l0 0c0,0 1,0 1,0l0 -2 2 0 0 2zm8 -3l-2 0 0 -1 2 0 0 1zm-1 3c0,0 0,0 0,0l1 0c0,0 0,0 0,0l1 -5c0,0 0,0 0,0l-3 0c-1,0 -1,0 -1,0l-1 5c0,0 0,0 0,0l1 0c0,0 0,0 0,0l0 -2 3 0 -1 2zm6 -3l-2 0 0 -1 2 0 0 1zm0 2l-3 0 1 -1 2 0 0 1zm0 1c0,0 1,-1 1,-1l0 -1c0,0 0,-1 -1,-1l0 0c1,0 1,0 1,-1l0 0c0,-1 0,-1 -1,-1l-3 0c0,0 0,0 0,0l-1 5c0,0 0,0 0,0l4 0zm2 -5c0,0 0,0 0,0l0 1c0,0 0,0 0,0l1 0 0 4c0,0 0,0 0,0l0 0c1,0 1,0 1,0l0 -4 2 0c0,0 0,0 0,0l0 -1c0,0 0,0 0,0l-4 0zm9 0c0,0 0,0 -1,0l-3 0c0,0 0,0 0,0l-1 4c0,1 0,1 0,1l3 0c1,0 1,0 1,-1l1 -4zm-2 4l-2 0 1 -3 2 0 -1 3zm6 -3l2 0 0 1 -3 0c0,0 0,0 0,0l0 1c0,0 0,0 0,0l3 0 -1 1 -2 0c0,0 0,0 0,0l-1 1c0,0 1,0 1,0l3 0c0,0 0,0 0,-1l1 -1c0,0 -1,-1 -1,-1l0 0c0,0 1,0 1,0l0 -2c0,0 0,0 0,0l-4 0c0,0 0,0 0,0l0 1c0,0 0,0 0,0l1 0c0,0 0,0 0,0l0 0zm9 4c0,0 1,0 1,0l0 -1c0,0 0,0 0,0l-4 0 1 -3 3 0c0,0 0,0 0,0l0 -1c0,0 0,0 0,0l-3 0c-1,0 -1,0 -1,0l-1 4c0,1 0,1 1,1l3 0zm7 -5c0,0 0,0 0,0l-1 0c0,0 0,0 0,0l0 4 -1 0 0 -4c0,0 0,0 0,0l-1 0c0,0 0,0 0,0l0 4 -1 0 0 -4c0,0 0,0 0,0l-1 0c0,0 0,0 0,0l-1 4c0,1 1,1 1,1l4 0c0,0 0,0 1,-1l0 -4zm4 2l-2 0 0 -1 2 0 0 1zm0 3c-1,0 0,0 0,0l0 0c0,0 1,0 1,0l0 -5c0,0 0,0 0,0l-3 0c-1,0 -1,0 -1,0l-1 5c0,0 0,0 0,0l1 0c0,0 0,0 0,0l1 -2 2 0 0 2zm5 -5c0,0 0,0 -1,0l0 1c0,0 0,0 1,0l1 0 -1 4c0,0 0,0 0,0l1 0c0,0 0,0 0,0l1 -4 1 0c1,0 1,0 1,0l0 -1c0,0 0,0 0,0l-4 0zm7 2l-2 0 0 -1 2 0 0 1zm0 3c0,0 0,0 0,0l0 0c1,0 1,0 1,0l0 -5c1,0 0,0 0,0l-3 0c0,0 -1,0 -1,0l-1 5c0,0 0,0 1,0l0 0c0,0 0,0 0,0l1 -2 2 0 0 2zm6 -3l0 0 0 -2c0,0 0,0 0,0l-1 0c0,0 0,0 0,0l-1 5c0,0 0,0 0,0l1 0c0,0 0,0 0,0l0 -2 1 0 1 2c0,0 0,0 0,0l1 0c0,0 0,0 0,0l-1 -3 2 -2c0,0 0,0 0,0l-1 0c0,0 0,0 0,0l-2 2zm6 0l-2 0 1 -1 2 0 -1 1zm0 3c0,0 0,0 0,0l1 0c0,0 0,0 0,0l1 -5c0,0 0,0 -1,0l-3 0c0,0 0,0 0,0l-1 5c0,0 0,0 0,0l1 0c0,0 0,0 0,0l0 -2 2 0 0 2zm7 -5c0,0 0,0 0,0l-1 0c0,0 0,0 0,0l0 2 -2 0 0 -2c0,0 0,0 0,0l-1 0c0,0 0,0 0,0l-1 5c0,0 0,0 0,0l1 0c0,0 0,0 0,0l0 -2 2 0 0 2c0,0 0,0 0,0l1 0c0,0 0,0 0,0l1 -5zm4 2l-2 0 0 -1 2 0 0 1zm-1 3c0,0 0,0 0,0l1 0c0,0 0,0 0,0l1 -5c0,0 0,0 0,0l-4 0c0,0 0,0 0,0l-1 5c0,0 0,0 0,0l1 0c0,0 0,0 0,0l0 -2 3 0 -1 2zm2 -1c0,0 0,0 0,0l-1 2c0,0 0,0 1,0l0 0c0,0 0,0 0,0l1 -1 4 0 0 1c0,0 0,0 0,0l1 0c0,0 0,0 0,0l0 -2c0,0 0,0 0,0l-1 0 1 -4c0,0 -1,0 -1,0l-2 0c0,0 0,0 0,0l-2 4 -1 0zm3 -3l1 0 0 3 -2 0 1 -3zm13 0l2 0 -1 4c0,0 0,0 0,0l1 0c0,0 0,0 0,0l1 -5c0,0 0,0 -1,0l-3 0c0,0 0,0 0,0l-1 5c0,0 0,0 0,0l1 0c0,0 0,0 0,0l1 -4zm5 -1c0,0 0,0 0,0l-1 0c0,0 0,0 0,0l-1 5c0,0 0,0 0,0l1 0c0,0 0,0 0,0l1 -5zm0 4c0,0 -1,0 -1,0l0 2c0,0 0,0 0,0l1 0c0,0 0,0 0,0l0 -1 5 0 -1 1c0,0 0,0 1,0l0 0c0,0 0,0 0,0l1 -2c0,0 0,0 0,0l-1 0 0 -4c0,0 0,0 0,0l-2 0c0,0 0,0 0,0l-2 4 -1 0zm3 -3l1 0 0 3 -2 0 1 -3zm7 1l0 0 0 -2c0,0 0,0 0,0l0 0c-1,0 -1,0 -1,0l-1 5c0,0 1,0 1,0l0 0c0,0 1,0 1,0l0 -2 0 0 1 2c0,0 1,0 1,0l0 0c1,0 1,0 1,0l-2 -3 2 -2c0,0 0,0 0,0l-1 0c0,0 0,0 0,0l-2 2zm3 3c0,0 0,0 0,0l1 0c0,0 0,0 0,0l2 -4 1 0 -1 4c0,0 0,0 1,0l0 0c0,0 0,0 1,0l0 -5c0,0 0,0 0,0l-2 0c0,0 0,0 0,0l-3 4 0 0c0,0 0,0 0,0l0 1zm7 -5c0,0 0,0 0,0l-1 0c0,0 0,0 0,0l-1 5c0,0 0,0 1,0l0 0c0,0 0,0 0,0l1 -2 1 0 -1 1c0,1 0,1 1,1l2 0c1,0 1,0 1,-1l1 -4c0,0 0,0 -1,0l-2 0c-1,0 -1,0 -1,0l0 2 -1 0 0 -2zm3 4l-2 0 1 -3 2 0 -1 3zm2 -2c0,0 1,1 1,1l2 0 0 2c0,0 0,0 0,0l1 0c0,0 0,0 0,0l1 -5c0,0 0,0 0,0l-1 0c0,0 0,0 0,0l0 2 -3 0 1 -2c0,0 0,0 0,0l-1 0c0,0 0,0 0,0l-1 2zm-40 2c0,1 0,1 1,1l0 0c0,0 0,0 0,0l3 -3 -1 3c0,0 0,0 1,0l0 0c0,0 0,0 0,0l1 -5c0,0 0,0 0,0l-1 0c0,0 0,0 0,0l-2 3 0 -3c0,0 0,0 0,0l-1 0c0,0 0,0 0,0l-1 4z"/>
   <path class="fil0" d="M31 27l-9 0 0 0c-1,4 1,8 6,8l1 0 2 -8zm3 -13l-27 0 0 0c-1,5 2,8 6,8l19 0 2 -8z"/>
  </g>
 </g>
</svg>
