<?xml version="1.0" encoding="UTF-8"?>
<!DOCTYPE svg PUBLIC "-//W3C//DTD SVG 1.1//EN" "http://www.w3.org/Graphics/SVG/1.1/DTD/svg11.dtd">
<!-- Creator: CorelDRAW X8 -->
<svg xmlns="http://www.w3.org/2000/svg" xml:space="preserve" width="680px" height="100px" version="1.1" style="shape-rendering:geometricPrecision; text-rendering:geometricPrecision; image-rendering:optimizeQuality; fill-rule:evenodd; clip-rule:evenodd"
viewBox="0 0 680 100"
 xmlns:xlink="http://www.w3.org/1999/xlink">
 <defs>
  <style type="text/css">
   <![CDATA[
    .fil0 {fill:#FEFEFE}
    .fil1 {fill:#FEFEFE;fill-rule:nonzero}
   ]]>
  </style>
 </defs>
 <g id="Layer_x0020_1">
  <metadata id="CorelCorpID_0Corel-Layer"/>
  <g id="_2838516371952">
   <path class="fil0" d="M178 0l-51 0 0 0 -127 0 0 0c-2,10 5,19 15,19l81 0 -3 10 0 2 -6 27 -3 13 -4 16c-1,7 3,13 10,13l65 0c8,0 15,-6 16,-13l2 -8 4 -14 0 -1c0,-2 -1,-3 -2,-3l-12 0c-1,0 -3,1 -3,3l0 1 -3 12c-1,3 -3,4 -5,4l-13 0 1 -5c1,-2 -1,-3 -2,-3l-17 0c-2,0 -4,1 -5,3l-1 5 -13 0c-2,0 -3,-1 -3,-4l13 -54c0,-3 3,-4 5,-4l6 0 43 0c2,0 4,1 3,4l-2 12 -1 0 0 0c0,2 1,3 3,3l11 0c1,0 3,-1 3,-3l0 0 0 0 4 -15 1 -7c2,-7 -2,-13 -10,-13zm-157 15l0 0zm7 -9l0 0 3 1c0,0 0,0 1,0 0,0 0,0 0,0 0,0 0,1 0,1 0,0 -1,0 -1,0l-3 3 0 0 0 0 0 3c0,0 0,0 0,1 0,0 0,0 0,0l0 0 -1 0 0 0 0 0 -3 -2 0 0 0 0 -3 2c0,0 -1,0 -1,0 0,0 0,0 0,0 0,0 0,0 0,0 0,-1 0,-1 0,-1l1 -3 0 0 0 0 -2 -3 0 0c0,0 0,0 0,0l0 0 0 -1 0 0c0,0 0,0 0,0 0,0 0,0 1,0l3 -1 0 0 0 0 3 -3c0,0 0,0 0,0 0,0 0,0 0,0 0,0 0,0 1,0 0,0 0,0 0,0l1 3 0 0zm18 9l0 0zm7 -9l0 0 3 1c0,0 0,0 0,0 1,0 1,0 1,0 0,0 0,1 0,1 -1,0 -1,0 -1,0l-3 3 0 0 0 0 0 3c0,0 0,0 0,1 0,0 0,0 0,0l0 0 -1 0 0 0 0 0 -3 -2 0 0 0 0 -3 2c-1,0 -1,0 -1,0 0,0 0,0 0,0 0,0 0,0 0,0 0,-1 0,-1 0,-1l1 -3 0 0 0 0 -2 -3 0 0c0,0 0,0 0,0l0 0 0 -1 0 0c0,0 0,0 0,0 0,0 0,0 1,0l3 -1 0 0 0 0 3 -3c0,0 0,0 0,0 0,0 0,0 0,0 0,0 0,0 0,0 1,0 1,0 1,0l1 3 0 0zm17 9l0 0zm8 -9l0 0 3 1c0,0 0,0 0,0 0,0 0,0 0,0 1,0 0,1 0,1 0,0 0,0 0,0l-3 3 0 0 0 0 0 3c0,0 0,0 0,1 0,0 0,0 0,0l-1 0 0 0 0 0 0 0 -3 -2 0 0 0 0 -4 2c0,0 0,0 0,0 0,0 0,0 0,0 0,0 0,0 0,0 0,-1 0,-1 0,-1l1 -3 0 0 0 0 -2 -3 0 0c0,0 0,0 0,0l0 0 0 -1 0 0c0,0 0,0 0,0 0,0 0,0 0,0l4 -1 0 0 0 0 3 -3c0,0 0,0 0,0 0,0 0,0 0,0 0,0 0,0 0,0 0,0 1,0 1,0l1 3 0 0zm68 29l-17 0c-2,0 -4,2 -4,4l-3 13c-1,2 1,4 2,4l17 0c2,0 4,-2 5,-4l3 -13c0,-2 -1,-4 -3,-4z"/>
   <path class="fil1" d="M262 64c1,0 2,-1 2,-1l1 -6c0,-1 -1,-2 -1,-2l-26 0 5 -25 25 0c1,0 1,0 2,-1l1 -6c0,-1 -1,-2 -1,-2l-30 0c-3,0 -5,2 -5,5l-6 34c-1,2 1,4 3,4l30 0zm39 -20l-18 0 2 -14 18 0 -2 14zm-4 19c0,0 1,1 2,1l6 0c1,0 1,-1 1,-1l7 -37c0,-3 -1,-5 -4,-5l-27 0c-2,0 -4,2 -5,5l-6 37c0,0 0,1 1,1l6 0c1,0 2,-1 2,-1l2 -12 18 0 -3 12zm27 -12l20 0c4,0 8,-3 8,-7l3 -15c1,-4 -2,-8 -6,-8l-27 0c-1,0 -1,1 -1,2l-8 40c0,0 1,1 2,1l6 0c1,0 1,-1 1,-1l2 -12zm20 -8l-18 0 2 -13 18 0 -2 13zm28 -20c0,-1 0,-2 -1,-2l-6 0c-1,0 -2,1 -2,2l-7 40c0,0 1,1 1,1l6 0c1,0 2,-1 2,-1l7 -40zm6 -2c-1,0 -1,1 -2,2l-1 6c0,1 1,1 1,1l12 0 -5 33c-1,0 0,1 1,1l6 0c1,0 1,-1 1,-1l6 -33 12 0c1,0 2,0 2,-1l1 -6c0,-1 -1,-2 -1,-2l-33 0zm61 23l-18 0 3 -14 17 0 -2 14zm-3 19c-1,0 0,1 1,1l6 0c1,0 1,-1 2,-1l6 -37c1,-3 -1,-5 -4,-5l-26 0c-3,0 -5,2 -5,5l-7 37c0,0 0,1 1,1l6 0c1,0 2,-1 2,-1l2 -12 18 0 -2 12zm58 -40c0,-1 0,-2 -1,-2l-6 0c-1,0 -1,1 -2,2l-4 26 -13 -26c0,-1 -1,-2 -2,-2l-3 0c-2,0 -4,2 -5,5l-6 37c-1,0 0,1 1,1l6 0c1,0 1,-1 2,-1l4 -27 12 27c1,0 2,1 3,1l3 0c2,0 4,-2 5,-4l6 -37zm52 21l-18 0 2 -14 18 0 -2 14zm-4 19c0,0 1,1 2,1l6 0c0,0 1,-1 1,-1l7 -37c0,-3 -1,-5 -4,-5l-27 0c-2,0 -4,2 -5,5l-6 37c-1,0 0,1 1,1l6 0c1,0 1,-1 2,-1l2 -12 17 0 -2 12zm32 -40c0,-1 0,-2 -1,-2l-6 0c-1,0 -1,1 -2,2l-6 37c-1,2 1,4 4,4l26 0c3,0 5,-2 5,-4l7 -37c0,-1 -1,-2 -1,-2l-6 0c-1,0 -2,1 -2,2l-6 32 -17 0 5 -32zm33 -2c-1,0 -2,1 -2,2l-1 6c0,1 0,1 1,1l12 0 -6 33c0,0 1,1 2,1l6 0c0,0 1,-1 1,-1l6 -33 12 0c1,0 1,0 2,-1l1 -6c0,-1 -1,-2 -2,-2l-32 0zm73 5c0,-3 -1,-5 -4,-5l-26 0c-3,0 -5,2 -6,5l-6 34c0,2 2,4 4,4l27 0c2,0 4,-2 5,-4l6 -34zm-14 29l-18 0 4 -25 18 0 -4 25z"/>
   <path class="fil1" d="M245 90c0,0 0,1 0,1l-1 4c0,0 0,1 0,1l2 0c0,0 0,-1 0,-1l1 -2 10 0 -1 2c0,0 0,1 1,1l1 0c0,0 1,-1 1,-1l0 -4c1,0 0,-1 0,-1l-2 0 1 -8c1,0 0,-1 -1,-1l-4 0c0,0 -1,0 -1,0l-5 9 -2 0zm8 -6l3 0 -1 6 -5 0 3 -6zm18 -2c1,0 0,-1 -1,-1l-7 0c-1,0 -1,1 -1,1l-2 10c0,0 0,1 1,1l7 0c1,0 2,-1 2,-1l1 -10zm-3 8l-5 0 1 -6 5 0 -1 6zm13 3c0,0 0,0 0,0l1 -2c0,0 0,-1 -1,-1l-7 0 2 -6 7 0c0,0 0,-1 0,-1l0 -2c1,0 0,0 0,0l-8 0c-1,0 -1,1 -2,1l-1 10c0,0 0,1 1,1l8 0zm4 -12c0,0 0,0 0,0l-1 2c0,0 0,1 1,1l3 0 -2 9c0,0 0,0 1,0l1 0c1,0 1,0 1,0l1 -9 4 0c0,0 0,-1 0,-1l0 -2c1,0 0,0 0,0l-9 0zm17 6l-5 0 1 -3 5 0 -1 3zm-1 6c0,0 0,0 0,0l2 0c0,0 1,0 1,0l1 -11c1,0 0,-1 -1,-1l-7 0c-1,0 -1,1 -2,1l-1 11c0,0 0,0 0,0l2 0c0,0 0,0 0,0l1 -4 5 0 -1 4zm13 -7l-5 0 1 -2 5 0 -1 2zm-1 4l-5 0 1 -2 5 0 -1 2zm0 3c1,0 3,-1 3,-2l0 -2c0,-1 -1,-2 -2,-2l0 0c2,0 3,-1 3,-2l0 -2c0,-1 -1,-2 -2,-2l-7 0c0,0 0,0 -1,0l-1 12c-1,0 0,0 0,0l7 0zm9 -7l-1 0 1 -5c0,0 0,0 -1,0l-1 0c0,0 -1,0 -1,0l-2 12c0,0 0,0 1,0l1 0c1,0 1,0 1,0l1 -5 0 0 3 5c0,0 0,0 1,0l1 0c1,0 1,0 1,0l-3 -6 5 -6c0,0 0,0 -1,0l-1 0c-1,0 -1,0 -1,0l-4 5zm15 1l-5 0 0 -3 5 0 0 3zm-1 6c0,0 0,0 0,0l2 0c0,0 0,0 0,0l2 -11c0,0 0,-1 -1,-1l-7 0c-1,0 -2,1 -2,1l-2 11c0,0 1,0 1,0l1 0c1,0 1,0 1,0l0 -4 5 0 0 4zm18 -6l-4 0 0 -3 5 0 -1 3zm0 6c-1,0 0,0 0,0l2 0c0,0 0,0 0,0l2 -11c0,0 0,-1 -1,-1l-8 0c0,0 -1,1 -1,1l-2 11c0,0 0,0 0,0l2 0c0,0 1,0 1,0l0 -4 5 0 0 4zm13 -7l-5 0 0 -2 5 0 0 2zm-1 4l-5 0 0 -2 5 0 0 2zm0 3c1,0 2,-1 2,-2l0 -2c1,-1 0,-2 -1,-2l0 0c1,0 2,-1 2,-2l1 -2c0,-1 -1,-2 -2,-2l-8 0c0,0 0,0 0,0l-2 12c0,0 0,0 0,0l8 0zm5 -12c0,0 0,0 0,0l0 2c0,0 0,1 0,1l3 0 -1 9c0,0 0,0 0,0l2 0c0,0 0,0 0,0l2 -9 3 0c0,0 0,-1 1,-1l0 -2c0,0 0,0 0,0l-10 0zm21 1c0,0 -1,-1 -1,-1l-8 0c0,0 -1,1 -1,1l-2 10c0,0 1,1 1,1l8 0c0,0 1,-1 1,-1l2 -10zm-4 8l-5 0 1 -6 5 0 -1 6zm14 -6l4 0 -1 2 -5 0c0,0 0,0 0,0l-1 2c0,0 1,0 1,0l5 0 0 2 -6 0c-1,0 -1,1 -1,1l0 2c0,0 0,0 0,0l7 0c1,0 2,-1 2,-1l0 -4c1,0 0,-1 -1,-1l0 0c1,0 2,-1 2,-1l0 -4c1,0 0,-1 -1,-1l-7 0c0,0 0,0 0,0l-1 3c0,0 0,1 1,1l1 0c1,0 1,-1 1,-1l0 0zm21 9c0,0 0,0 0,0l1 -2c0,0 0,-1 -1,-1l-7 0 2 -6 7 0c0,0 0,-1 0,-1l0 -2c0,0 0,0 0,0l-8 0c-1,0 -1,1 -2,1l-1 10c0,0 0,1 1,1l8 0zm16 -12c0,0 0,0 0,0l-2 0c0,0 0,0 0,0l-2 9 -2 0 2 -9c0,0 -1,0 -1,0l-1 0c-1,0 -1,0 -1,0l-2 9 -2 0 2 -9c0,0 0,0 0,0l-2 0c0,0 -1,0 -1,0l-1 11c-1,0 0,1 1,1l9 0c1,0 1,-1 1,-1l2 -11zm9 6l-5 0 0 -3 5 0 0 3zm-1 6c0,0 0,0 0,0l2 0c0,0 0,0 0,0l2 -11c0,0 0,-1 -1,-1l-8 0c0,0 -1,1 -1,1l-2 11c0,0 0,0 1,0l1 0c0,0 1,0 1,0l0 -4 5 0 0 4zm12 -12c-1,0 -1,0 -1,0l0 2c0,0 0,1 0,1l3 0 -1 9c0,0 0,0 0,0l2 0c0,0 0,0 0,0l2 -9 3 0c0,0 1,-1 1,-1l0 -2c0,0 0,0 0,0l-9 0zm17 6l-5 0 0 -3 5 0 0 3zm-1 6c0,0 0,0 0,0l2 0c0,0 0,0 0,0l2 -11c0,0 0,-1 -1,-1l-8 0c0,0 -1,1 -1,1l-2 11c0,0 0,0 1,0l1 0c0,0 1,0 1,0l0 -4 5 0 0 4zm14 -7l0 0 0 -5c0,0 0,0 0,0l-2 0c0,0 0,0 0,0l-2 12c0,0 0,0 0,0l2 0c0,0 0,0 0,0l1 -5 1 0 3 5c0,0 0,0 0,0l2 0c0,0 1,0 0,0l-3 -6 5 -6c0,0 0,0 0,0l-2 0c0,0 0,0 -1,0l-4 5zm15 1l-5 0 1 -3 5 0 -1 3zm-1 6c0,0 1,0 1,0l1 0c1,0 1,0 1,0l2 -11c0,0 -1,-1 -1,-1l-8 0c0,0 -1,1 -1,1l-2 11c0,0 0,0 0,0l2 0c0,0 0,0 0,0l1 -4 5 0 -1 4zm17 -12c0,0 0,0 -1,0l-1 0c-1,0 -1,0 -1,0l-1 5 -5 0 1 -5c0,0 0,0 0,0l-2 0c0,0 0,0 0,0l-2 12c0,0 0,0 0,0l2 0c0,0 0,0 0,0l1 -5 5 0 -1 5c0,0 0,0 1,0l1 0c0,0 1,0 1,0l2 -12zm8 6l-5 0 1 -3 5 0 -1 3zm-1 6c0,0 0,0 0,0l2 0c0,0 0,0 1,0l1 -11c0,0 0,-1 -1,-1l-7 0c-1,0 -1,1 -2,1l-1 11c0,0 0,0 0,0l2 0c0,0 0,0 0,0l1 -4 5 0 -1 4zm4 -3c0,0 -1,1 -1,1l0 4c0,0 0,1 0,1l2 0c0,0 0,-1 0,-1l1 -2 9 0 0 2c0,0 0,1 0,1l2 0c0,0 0,-1 0,-1l1 -4c0,0 0,-1 0,-1l-2 0 1 -8c0,0 0,-1 -1,-1l-4 0c-1,0 -1,0 -1,0l-5 9 -2 0zm8 -6l3 0 -2 6 -4 0 3 -6zm28 0l5 0 -1 9c0,0 0,0 0,0l2 0c0,0 0,0 0,0l2 -11c0,0 0,-1 -1,-1l-7 0c-1,0 -2,1 -2,1l-2 11c0,0 0,0 1,0l1 0c1,0 1,0 1,0l1 -9zm13 -3c0,0 -1,0 -1,0l-1 0c-1,0 -1,0 -1,0l-2 12c0,0 0,0 0,0l2 0c0,0 1,0 1,0l2 -12zm-1 9c0,0 0,1 -1,1l0 4c0,0 0,1 0,1l2 0c0,0 0,-1 0,-1l1 -2 9 0 0 2c0,0 0,1 0,1l2 0c0,0 0,-1 0,-1l1 -4c0,0 0,-1 0,-1l-2 0 1 -8c0,0 0,-1 -1,-1l-4 0c-1,0 -1,0 -1,0l-5 9 -2 0zm8 -6l3 0 -2 6 -4 0 3 -6zm17 2l-1 0 1 -5c0,0 0,0 0,0l-2 0c0,0 -1,0 -1,0l-2 12c0,0 1,0 1,0l1 0c1,0 1,0 1,0l1 -5 0 0 3 5c0,0 1,0 1,0l1 0c1,0 1,0 1,0l-3 -6 5 -6c0,0 0,0 -1,0l-1 0c-1,0 -1,0 -1,0l-4 5zm5 7c0,0 0,0 0,0l3 0c0,0 1,0 1,0l4 -9 2 0 -1 9c0,0 0,0 0,0l2 0c0,0 0,0 0,0l2 -11c0,0 0,-1 -1,-1l-4 0c-1,0 -1,0 -1,0l-5 10 -1 0c0,0 -1,0 -1,0l0 2zm18 -12c0,0 0,0 -1,0l-1 0c0,0 -1,0 -1,0l-2 12c0,0 0,0 1,0l1 0c1,0 1,0 1,0l1 -5 1 0 0 4c0,0 0,1 1,1l6 0c1,0 1,-1 2,-1l1 -10c0,0 0,-1 -1,-1l-6 0c-1,0 -2,1 -2,1l0 4 -2 0 1 -5zm6 9l-4 0 2 -6 4 0 -2 6zm6 -4c-1,1 0,2 1,2l6 0 -1 5c0,0 0,0 0,0l2 0c0,0 0,0 0,0l2 -12c0,0 0,0 0,0l-2 0c0,0 0,0 0,0l-1 5 -5 0 1 -5c0,0 0,0 -1,0l-1 0c0,0 -1,0 -1,0l0 5zm-93 6c0,0 0,1 1,1l0 0c1,0 1,0 1,0l6 -8 -1 8c0,0 0,0 0,0l2 0c0,0 0,0 0,0l2 -11c0,0 0,-1 -1,-1l-1 0c0,0 0,0 0,0l-6 8 1 -8c0,0 0,0 0,0l-2 0c0,0 0,0 -1,0l-1 11z"/>
   <path class="fil0" d="M70 58l-22 0 0 0c-2,10 4,19 15,19l3 0 4 -19zm7 -29l-62 0 0 0c-2,10 4,19 14,19l43 0 5 -19z"/>
  </g>
 </g>
</svg>
