<?xml version="1.0" encoding="UTF-8"?>
<!DOCTYPE svg PUBLIC "-//W3C//DTD SVG 1.1//EN" "http://www.w3.org/Graphics/SVG/1.1/DTD/svg11.dtd">
<!-- Creator: CorelDRAW X8 -->
<svg xmlns="http://www.w3.org/2000/svg" xml:space="preserve" width="323px" height="142px" version="1.1" style="shape-rendering:geometricPrecision; text-rendering:geometricPrecision; image-rendering:optimizeQuality; fill-rule:evenodd; clip-rule:evenodd"
viewBox="0 0 323 142"
 xmlns:xlink="http://www.w3.org/1999/xlink">
 <defs>
  <style type="text/css">
   <![CDATA[
    .fil1 {fill:#EBECEC}
    .fil0 {fill:#EBECEC;fill-rule:nonzero}
   ]]>
  </style>
 </defs>
 <g id="Layer_x0020_1">
  <metadata id="CorelCorpID_0Corel-Layer"/>
  <g id="_2125990750848">
   <path class="fil0" d="M150 102l0 -7c-4,5 -9,8 -15,8 -3,0 -5,-1 -7,-2 -3,-1 -5,-2 -6,-4 -1,-1 -2,-3 -2,-6 0,-1 -1,-4 -1,-7l0 -28 8 0 0 25c0,4 0,7 1,8 0,2 1,4 3,5 1,1 3,2 6,2 2,0 4,-1 6,-2 2,-1 4,-3 5,-5 1,-2 1,-5 1,-9l0 -24 8 0 0 46 -7 0z"/>
   <path id="1" class="fil0" d="M166 88l8 -1c0,3 1,5 3,7 2,1 5,2 9,2 3,0 6,0 8,-2 1,-1 2,-3 2,-5 0,-2 0,-3 -2,-4 -1,-1 -4,-2 -8,-3 -6,-1 -10,-3 -12,-4 -2,-1 -4,-2 -5,-4 -1,-2 -2,-4 -2,-6 0,-2 1,-4 2,-6 1,-2 2,-3 4,-4 1,-1 2,-2 5,-2 2,-1 4,-1 6,-1 4,0 7,0 10,1 3,1 5,3 6,4 1,2 2,5 3,8l-8 1c0,-3 -1,-5 -3,-6 -2,-1 -4,-2 -7,-2 -4,0 -6,1 -8,2 -1,1 -2,2 -2,4 0,1 0,2 1,3 0,1 1,1 3,2 1,0 3,1 7,2 5,1 9,2 11,3 2,1 4,3 5,4 2,2 2,4 2,7 0,3 0,5 -2,7 -2,3 -4,5 -7,6 -2,1 -6,2 -9,2 -6,0 -11,-2 -14,-4 -3,-2 -5,-6 -6,-11z"/>
   <path id="2" class="fil0" d="M244 96c-3,2 -6,4 -9,5 -2,1 -5,2 -8,2 -5,0 -9,-2 -12,-4 -3,-2 -4,-6 -4,-9 0,-3 0,-5 1,-7 1,-1 3,-3 4,-4 2,-1 4,-2 6,-3 2,0 4,0 7,-1 6,-1 11,-1 14,-3 0,-1 0,-1 0,-2 0,-3 -1,-5 -2,-6 -2,-2 -5,-3 -9,-3 -4,0 -6,1 -8,2 -2,1 -3,4 -4,7l-8 -1c1,-3 2,-6 4,-8 1,-2 4,-4 7,-5 3,-1 6,-1 10,-1 4,0 7,0 10,1 2,1 4,2 5,4 1,1 2,3 3,5 0,1 0,4 0,7l0 10c0,8 0,12 0,14 1,2 1,4 2,6l-8 0c-1,-2 -1,-4 -1,-6zm-1 -17c-3,1 -7,2 -13,3 -3,0 -5,1 -7,1 -1,1 -2,2 -3,3 0,1 -1,2 -1,3 0,2 1,4 3,6 1,1 4,2 7,2 3,0 5,-1 8,-2 2,-2 4,-3 5,-6 1,-2 1,-4 1,-8l0 -2z"/>
   <path class="fil1" d="M24 63l78 0 0 15 -78 0 0 -15zm7 7l64 0 0 1 -64 0 0 -1z"/>
  </g>
 </g>
</svg>
