<?xml version="1.0" encoding="UTF-8"?>
<!DOCTYPE svg PUBLIC "-//W3C//DTD SVG 1.1//EN" "http://www.w3.org/Graphics/SVG/1.1/DTD/svg11.dtd">
<!-- Creator: CorelDRAW X8 -->
<svg xmlns="http://www.w3.org/2000/svg" xml:space="preserve" width="26px" height="26px" version="1.1" style="shape-rendering:geometricPrecision; text-rendering:geometricPrecision; image-rendering:optimizeQuality; fill-rule:evenodd; clip-rule:evenodd"
viewBox="0 0 26 26"
 xmlns:xlink="http://www.w3.org/1999/xlink">
 <defs>
  <style type="text/css">
   <![CDATA[
    .fil0 {fill:#6C6C6C}
   ]]>
  </style>
 </defs>
 <g id="Layer_x0020_1">
  <metadata id="CorelCorpID_0Corel-Layer"/>
  <g id="_1385759855520">
   <path class="fil0" d="M4 1c-2,0 -3,1 -3,3l0 18c0,2 1,3 3,3l18 0c2,0 3,-1 3,-3l0 -18c0,-2 -1,-3 -3,-3l-18 0zm0 2l18 0c1,0 1,0 1,1l0 8 -4 0c-1,-3 -3,-5 -6,-5 -3,0 -5,2 -6,5l-4 0 0 -8c0,-1 0,-1 1,-1zm16 2c-1,0 -1,0 -1,1 0,1 0,2 1,2 1,0 2,-1 2,-2 0,-1 -1,-1 -2,-1zm-7 4c2,0 4,2 4,4 0,2 -2,4 -4,4 -2,0 -4,-2 -4,-4 0,-2 2,-4 4,-4zm-10 5l4 0c1,3 3,5 6,5 3,0 5,-2 6,-5l4 0 0 8c0,1 0,1 -1,1l-18 0c-1,0 -1,0 -1,-1l0 -8z" display="inline"/>
  </g>
 </g>
</svg>
