<?xml version="1.0" encoding="UTF-8"?>
<!DOCTYPE svg PUBLIC "-//W3C//DTD SVG 1.1//EN" "http://www.w3.org/Graphics/SVG/1.1/DTD/svg11.dtd">
<!-- Creator: CorelDRAW X8 -->
<svg xmlns="http://www.w3.org/2000/svg" xml:space="preserve" width="33px" height="26px" version="1.1" style="shape-rendering:geometricPrecision; text-rendering:geometricPrecision; image-rendering:optimizeQuality; fill-rule:evenodd; clip-rule:evenodd"
viewBox="0 0 33 26"
 xmlns:xlink="http://www.w3.org/1999/xlink">
 <defs>
  <style type="text/css">
   <![CDATA[
    .fil0 {fill:#B1413F}
   ]]>
  </style>
 </defs>
 <g id="Layer_x0020_1">
  <metadata id="CorelCorpID_0Corel-Layer"/>
  <path class="fil0" d="M25 9c-1,0 -1,0 -1,-1 0,0 0,0 1,0 0,-1 0,-1 0,-1l4 0c0,0 0,0 1,1 0,0 0,0 0,0 0,1 0,1 0,1 -1,0 -1,0 -1,0l-4 0c0,0 0,0 0,0zm-20 -8l26 0c1,0 1,0 1,0 0,0 0,0 0,1 0,0 0,0 0,0 0,1 0,1 -1,1l-6 0 -8 8c-1,1 -2,1 -3,1 -2,0 -3,0 -4,-1l-7 -7 0 1 0 0c0,0 0,0 0,0l0 16c0,1 0,1 1,2 0,0 1,0 1,0 2,0 9,1 10,0l3 0c1,0 1,1 1,1 0,0 0,0 0,1 0,0 0,0 0,0 0,1 0,1 -1,1l-13 0c-1,0 -2,-1 -3,-2 -1,-1 -1,-2 -1,-3l0 -16c0,-1 0,-2 1,-3 1,-1 2,-1 3,-1zm7 8c0,1 1,1 2,1 0,0 1,0 1,-1l7 -6 -17 0 7 6zm5 11c0,0 0,-1 0,-1 0,0 0,-1 0,-1 0,0 0,0 1,0l3 0c1,0 1,0 1,0 0,0 0,1 0,1 0,0 0,1 0,1 0,0 0,0 -1,0l-3 0c-1,0 -1,0 -1,0zm4 -5c-1,-1 -1,-1 -1,-1 0,-1 0,-1 1,-1 0,0 0,0 0,0l4 0c0,0 1,0 1,0 0,0 0,0 0,1 0,0 0,0 0,1 0,0 -1,0 -1,0l-4 0c0,0 0,0 0,0z"/>
 </g>
</svg>
