<?xml version="1.0" encoding="UTF-8"?>
<!DOCTYPE svg PUBLIC "-//W3C//DTD SVG 1.1//EN" "http://www.w3.org/Graphics/SVG/1.1/DTD/svg11.dtd">
<!-- Creator: CorelDRAW X8 -->
<svg xmlns="http://www.w3.org/2000/svg" xml:space="preserve" width="34px" height="26px" version="1.1" style="shape-rendering:geometricPrecision; text-rendering:geometricPrecision; image-rendering:optimizeQuality; fill-rule:evenodd; clip-rule:evenodd"
viewBox="0 0 34 26"
 xmlns:xlink="http://www.w3.org/1999/xlink">
 <defs>
  <style type="text/css">
   <![CDATA[
    .fil0 {fill:#6C6C6C;fill-rule:nonzero}
   ]]>
  </style>
 </defs>
 <g id="Layer_x0020_1">
  <metadata id="CorelCorpID_0Corel-Layer"/>
  <path class="fil0" d="M1 4c0,-1 0,-2 1,-2l0 0c0,-1 1,-1 2,-1l26 0c1,0 2,0 2,1 1,0 1,1 1,2l0 17c0,2 0,3 -1,3 0,1 -1,1 -2,1l-26 0c-1,0 -2,0 -2,-1 -1,0 -1,-1 -1,-3l0 -17zm13 5l0 8 9 -4 -9 -4zm-11 -6c0,0 -1,1 -1,1l0 17c0,1 1,2 1,2 0,0 1,0 1,0l26 0c0,0 1,0 1,0 0,0 1,-1 1,-2l0 -17c0,0 -1,-1 -1,-1 0,0 -1,-1 -1,-1l-26 0c0,0 -1,1 -1,1l0 0z"/>
 </g>
</svg>
