<?xml version="1.0" encoding="UTF-8"?>
<!DOCTYPE svg PUBLIC "-//W3C//DTD SVG 1.1//EN" "http://www.w3.org/Graphics/SVG/1.1/DTD/svg11.dtd">
<!-- Creator: CorelDRAW X8 -->
<svg xmlns="http://www.w3.org/2000/svg" xml:space="preserve" width="78px" height="51px" version="1.1" style="shape-rendering:geometricPrecision; text-rendering:geometricPrecision; image-rendering:optimizeQuality; fill-rule:evenodd; clip-rule:evenodd"
viewBox="0 0 78 51"
 xmlns:xlink="http://www.w3.org/1999/xlink">
 <defs>
  <style type="text/css">
   <![CDATA[
    .fil0 {fill:#FEFEFE}
    .fil1 {fill:#FEFEFE;fill-rule:nonzero}
   ]]>
  </style>
 </defs>
 <g id="Layer_x0020_1">
  <metadata id="CorelCorpID_0Corel-Layer"/>
  <g id="_1385764780496">
   <g>
    <polygon class="fil0" points="70,29 67,34 77,34 72,26 "/>
    <polygon class="fil0" points="62,10 58,17 58,17 60,15 63,25 63,26 67,19 "/>
    <path class="fil0" d="M43 10l-4 7 2 -3 3 11 0 1 4 -7 -5 -9zm-4 7l5 9 0 0 -5 -9z"/>
    <polygon class="fil0" points="23,9 18,9 15,9 10,1 10,1 15,9 18,9 11,1 19,1 "/>
    <path class="fil0" d="M10 1l15 25 -5 8 -14 -25 4 -8zm10 22l0 2 2 0 -1 1 0 1 -1 -1 -1 1 0 -1 -1 -1 1 0 1 -2zm-3 -4l1 2 1 0 -1 0 1 2 -2 -1 -1 1 1 -2 -2 0 2 0 0 -2zm-2 -4l1 1 1 0 -1 1 0 2 -1 -1 -1 1 0 -2 -1 -1 2 0 0 -1zm-2 -4l0 1 2 0 -2 1 1 2 -1 -1 -2 1 1 -2 -1 -1 1 0 1 -1zm-3 -4l1 1 1 0 -1 1 1 2 -2 -1 -1 1 1 -2 -2 -1 2 0 0 -1z"/>
    <polygon class="fil0" points="9,34 1,34 5,27 "/>
    <polygon class="fil0" points="29,1 44,26 39,34 20,1 "/>
    <polygon class="fil0" points="48,1 63,26 58,34 39,1 "/>
    <path class="fil0" d="M19 32l1 2 0 0 -1 -2zm1 2l-9 0 -5 -8 6 0 8 8 0 0z"/>
    <polygon class="fil0" points="67,1 72,9 67,17 58,1 "/>
   </g>
   <path class="fil1" d="M0 49l0 -7 2 0 1 5c1,0 1,0 1,1 0,-1 0,-1 0,-1l2 -5 1 0 0 7 -1 0 0 -6 -2 6 -1 0 -2 -6 0 6 -1 0z"/>
   <path id="1" class="fil1" d="M12 48c0,0 -1,1 -1,1 0,0 -1,0 -1,0 -1,0 -1,0 -1,-1 -1,0 -1,0 -1,-1 0,0 0,0 0,0 1,-1 1,-1 1,-1 0,0 0,0 0,0 1,0 1,0 1,0 1,0 1,0 2,-1 0,0 0,0 0,0 0,0 0,0 0,0 -1,-1 -1,-1 -1,-1 -1,0 -1,0 -1,0 -1,1 -1,1 -1,1l-1 0c0,0 1,-1 1,-1 0,0 0,0 1,0 0,0 0,-1 1,-1 0,0 0,1 1,1 0,0 0,0 0,0 0,0 1,0 1,1 0,0 0,0 0,0l0 2c0,0 0,1 0,1 0,0 0,1 0,1l-1 0c0,0 0,-1 0,-1zm0 -2c-1,0 -1,0 -2,0 0,1 0,1 0,1 -1,0 -1,0 -1,0 0,0 0,0 0,0 0,1 0,1 0,1 1,0 1,0 1,0 1,0 1,0 1,0 0,0 1,0 1,-1 0,0 0,0 0,-1l0 0z"/>
   <polygon id="2" class="fil1" points="14,49 14,42 15,42 15,46 17,44 18,44 16,46 18,49 17,49 15,46 15,47 15,49 "/>
   <path id="3" class="fil1" d="M22 47l1 0c0,1 0,1 0,1 -1,1 -1,1 -2,1 -1,0 -1,0 -2,-1 0,0 0,-1 0,-2 0,-1 0,-1 0,-2 1,0 1,-1 2,-1 1,0 1,1 2,1 0,1 0,1 0,2 0,0 0,0 0,0l-3 0c0,1 0,1 0,2 0,0 1,0 1,0 0,0 1,0 1,0 0,0 0,-1 0,-1zm-2 -1l2 0c0,-1 0,-1 0,-1 0,-1 -1,-1 -1,-1 0,0 -1,0 -1,1 0,0 0,0 0,1z"/>
   <path id="4" class="fil1" d="M28 49l-1 0 0 -7 1 0 0 2c0,0 1,-1 1,-1 1,0 1,1 1,1 1,0 1,0 1,0 0,0 0,1 0,1 0,0 1,1 1,1 0,1 -1,2 -1,2 -1,1 -1,1 -2,1 0,0 -1,0 -1,-1l0 1zm0 -3c0,1 0,1 0,1 0,1 1,1 1,1 1,0 1,0 1,0 1,-1 1,-1 1,-2 0,-1 0,-1 -1,-1 0,-1 0,-1 -1,-1 0,0 0,0 -1,1 0,0 0,1 0,1z"/>
   <path id="5" class="fil1" d="M33 51l-1 -1c1,0 1,0 1,0 0,0 0,0 0,0 1,0 1,0 1,0 0,-1 0,-1 0,-1 0,0 0,0 0,0l-2 -5 1 0 1 3c0,0 0,0 0,1 1,-1 1,-1 1,-1l1 -3 1 0 -2 5c0,0 -1,1 -1,1 0,0 0,0 0,1 0,0 -1,0 -1,0 0,0 0,0 0,0z"/>
   <path id="6" class="fil1" d="M40 46l1 0c0,1 0,1 0,1 0,0 1,1 1,1 0,0 1,0 1,0 0,0 1,0 1,0 0,0 0,0 1,-1 0,0 0,0 0,0 0,0 0,-1 0,-1 -1,0 -1,0 -1,0 0,0 -1,0 -1,-1 -1,0 -1,0 -2,0 0,0 0,0 0,-1 -1,0 -1,0 -1,-1 0,0 0,0 1,-1 0,0 0,0 1,0 0,0 0,0 1,0 0,0 1,0 1,0 1,0 1,0 1,1 0,0 0,0 0,1l0 0c0,-1 -1,-1 -1,-1 0,-1 -1,-1 -1,-1 -1,0 -1,0 -1,1 -1,0 -1,0 -1,0 0,1 0,1 0,1 1,0 1,0 2,1 1,0 1,0 1,0 1,0 1,0 1,1 1,0 1,0 1,1 0,0 0,0 -1,1 0,0 0,0 -1,1 0,0 0,0 -1,0 -1,0 -1,0 -2,0 0,-1 0,-1 -1,-1 0,-1 0,-1 0,-2z"/>
   <path id="7" class="fil1" d="M49 48l0 1c0,0 -1,0 -1,0 0,0 0,0 -1,0 0,0 0,-1 0,-1 0,0 0,0 0,-1l0 -3 -1 0 0 0 1 0 0 -2 1 0 0 2 1 0 0 0 -1 0 0 3c0,1 0,1 0,1 0,0 0,0 0,0 0,0 0,0 0,0 0,0 1,0 1,0z"/>
   <path id="8" class="fil1" d="M53 48c0,0 -1,1 -1,1 0,0 -1,0 -1,0 -1,0 -1,0 -1,-1 -1,0 -1,0 -1,-1 0,0 0,0 0,0 1,-1 1,-1 1,-1 0,0 0,0 0,0 1,0 1,0 1,0 1,0 1,0 2,-1 0,0 0,0 0,0 0,0 0,0 0,0 -1,-1 -1,-1 -1,-1 -1,0 -1,0 -1,0 -1,1 -1,1 -1,1l-1 0c0,0 1,-1 1,-1 0,0 0,0 1,0 0,0 0,-1 1,-1 0,0 0,1 1,1 0,0 0,0 0,0 1,0 1,0 1,1 0,0 0,0 0,0l0 2c0,0 0,1 0,1 0,0 0,1 0,1l-1 0c0,0 0,-1 0,-1zm0 -2c-1,0 -1,0 -2,0 0,1 0,1 0,1 -1,0 -1,0 -1,0 0,0 0,0 0,0 0,1 0,1 0,1 1,0 1,0 1,0 1,0 1,0 1,0 0,0 1,0 1,-1 0,0 0,0 0,-1l0 0z"/>
   <path id="9" class="fil1" d="M55 49l0 -5 1 0 0 0c0,0 0,0 0,0 1,0 1,-1 1,-1 0,0 0,1 1,1l-1 1c0,-1 0,-1 0,-1 0,0 -1,0 -1,1 0,0 0,0 0,0 0,0 0,1 0,1l0 3 -1 0z"/>
   <path id="10" class="fil1" d="M62 49l-2 -7 1 0 2 4c0,1 0,1 0,2 0,-1 0,-1 0,-2l1 -4 2 0 1 3c0,1 0,2 0,3 0,-1 0,-1 1,-2l1 -4 1 0 -2 7 -1 0 -2 -6c0,0 0,0 0,0 0,0 0,0 0,0l-2 6 -1 0z"/>
   <path id="11" class="fil1" d="M73 48c0,0 0,1 -1,1 0,0 0,0 -1,0 0,0 -1,0 -1,-1 0,0 0,0 0,-1 0,0 0,0 0,0 0,-1 0,-1 0,-1 0,0 1,0 1,0 0,0 0,0 1,0 0,0 1,0 1,-1 0,0 0,0 0,0 0,0 0,0 0,0 0,-1 -1,-1 -1,-1 0,0 -1,0 -1,0 0,1 0,1 0,1l-1 0c0,0 0,-1 0,-1 0,0 1,0 1,0 0,0 1,-1 1,-1 1,0 1,1 1,1 0,0 1,0 1,0 0,0 0,0 0,1 0,0 0,0 0,0l0 2c0,0 0,1 0,1 0,0 0,1 0,1l-1 0c0,0 0,-1 0,-1zm0 -2c0,0 -1,0 -1,0 -1,1 -1,1 -1,1 0,0 0,0 0,0 0,0 0,0 0,0 0,1 0,1 0,1 0,0 0,0 1,0 0,0 0,0 0,0 1,0 1,0 1,-1 0,0 0,0 0,-1l0 0z"/>
   <path id="12" class="fil1" d="M75 51l0 -1c0,0 1,0 1,0 0,0 0,0 0,0 0,0 0,0 1,0 0,-1 0,-1 0,-1 0,0 0,0 0,0l-2 -5 1 0 1 3c0,0 0,0 0,1 0,-1 1,-1 1,-1l1 -3 1 0 -2 5c-1,0 -1,1 -1,1 0,0 0,0 0,1 -1,0 -1,0 -1,0 0,0 0,0 -1,0z"/>
  </g>
 </g>
</svg>
