<?xml version="1.0" encoding="UTF-8"?>
<!DOCTYPE svg PUBLIC "-//W3C//DTD SVG 1.1//EN" "http://www.w3.org/Graphics/SVG/1.1/DTD/svg11.dtd">
<!-- Creator: CorelDRAW X8 -->
<svg xmlns="http://www.w3.org/2000/svg" xml:space="preserve" width="43px" height="45px" version="1.1" style="shape-rendering:geometricPrecision; text-rendering:geometricPrecision; image-rendering:optimizeQuality; fill-rule:evenodd; clip-rule:evenodd"
viewBox="0 0 43 46"
 xmlns:xlink="http://www.w3.org/1999/xlink">
 <defs>
  <style type="text/css">
   <![CDATA[
    .fil0 {fill:#727271}
   ]]>
  </style>
 </defs>
 <g id="Layer_x0020_1">
  <metadata id="CorelCorpID_0Corel-Layer"/>
  <path class="fil0" d="M28 18c5,0 9,-4 9,-9 0,-5 -4,-9 -9,-9 -5,0 -9,4 -9,9 0,5 4,9 9,9zm0 -16c4,0 7,3 7,7 0,4 -3,7 -7,7 -4,0 -7,-3 -7,-7 0,-4 3,-7 7,-7zm1 18c0,1 -1,1 -1,1 0,0 -1,0 -1,-1l-3 12 3 0 2 -12zm9 19l-33 0c0,0 -2,0 -2,2l37 0c0,0 0,-2 -2,-2zm2 4l-37 0c0,0 -2,0 -2,3l41 0c0,0 0,-3 -2,-3zm-5 -9l-25 0c0,0 -2,0 -2,2l30 0c0,0 0,-2 -3,-2zm-15 -2l2 0 3 -12c-1,0 -2,0 -3,-1l-2 13z"/>
 </g>
</svg>
