<?xml version="1.0" encoding="UTF-8"?>
<!DOCTYPE svg PUBLIC "-//W3C//DTD SVG 1.1//EN" "http://www.w3.org/Graphics/SVG/1.1/DTD/svg11.dtd">
<!-- Creator: CorelDRAW X8 -->
<svg xmlns="http://www.w3.org/2000/svg" xml:space="preserve" width="43px" height="45px" version="1.1" style="shape-rendering:geometricPrecision; text-rendering:geometricPrecision; image-rendering:optimizeQuality; fill-rule:evenodd; clip-rule:evenodd"
viewBox="0 0 43 46"
 xmlns:xlink="http://www.w3.org/1999/xlink">
 <defs>
  <style type="text/css">
   <![CDATA[
    .fil0 {fill:#727271}
   ]]>
  </style>
 </defs>
 <g id="Layer_x0020_1">
  <metadata id="CorelCorpID_0Corel-Layer"/>
  <g id="_1483033332368" data-name="Calque 2">
   <g>
    <path class="fil0" d="M42 43l-14 0 0 -1c1,1 2,1 3,1l2 0c2,0 4,-1 5,-2 0,-1 1,-3 1,-4 0,-1 0,-1 0,-2 -1,-3 -3,-4 -5,-6 -2,-1 -6,-4 -6,-9l0 -1 2 0 3 2c0,0 0,0 0,0 1,0 1,0 1,0 0,-1 1,-1 1,-1 0,0 -1,-1 -1,-1l-6 -6 0 -1c0,-7 -5,-12 -12,-12 -7,0 -12,5 -12,12l0 31 -3 0c0,0 -1,1 -1,2 0,0 1,1 1,1l41 0c0,0 1,-1 1,-1 0,-1 -1,-2 -1,-2l0 0zm-10 -12c2,1 4,3 4,5 1,0 1,0 1,1 0,1 -1,2 -1,2 -1,1 -2,2 -3,2 0,0 -1,0 -1,0 -1,0 -2,0 -2,-1 -1,-1 -2,-2 -2,-3 0,0 0,0 0,0l0 -10c1,2 3,3 4,4l0 0zm-6 12l-20 0 0 -31c0,-5 5,-10 10,-10 5,0 10,5 10,10l0 1c0,1 0,1 0,1l2 2 -1 0c-1,0 -1,1 -1,1l0 26z"/>
    <line class="fil0" x1="33" y1="43" x2="33" y2= "43" />
    <line class="fil0" x1="31" y1="43" x2="31" y2= "43" />
    <path class="fil0" d="M22 23l-12 0c-1,0 -2,-1 -2,-2l0 -8c0,0 1,-1 2,-1l12 0c1,0 2,1 2,1l0 8c0,1 -1,2 -2,2zm-11 -3l10 0 0 -6 -10 0 0 6z"/>
   </g>
  </g>
 </g>
</svg>
