<?xml version="1.0" encoding="UTF-8"?>
<!DOCTYPE svg PUBLIC "-//W3C//DTD SVG 1.1//EN" "http://www.w3.org/Graphics/SVG/1.1/DTD/svg11.dtd">
<!-- Creator: CorelDRAW X8 -->
<svg xmlns="http://www.w3.org/2000/svg" xml:space="preserve" width="39px" height="45px" version="1.1" style="shape-rendering:geometricPrecision; text-rendering:geometricPrecision; image-rendering:optimizeQuality; fill-rule:evenodd; clip-rule:evenodd"
viewBox="0 0 39 45"
 xmlns:xlink="http://www.w3.org/1999/xlink">
 <defs>
  <style type="text/css">
   <![CDATA[
    .fil1 {fill:#727271}
    .fil0 {fill:#727271;fill-rule:nonzero}
   ]]>
  </style>
 </defs>
 <g id="Layer_x0020_1">
  <metadata id="CorelCorpID_0Corel-Layer"/>
  <g id="_2115856866096">
   <path class="fil0" d="M13 6l13 0 0 -3c0,-2 1,-3 3,-3 1,0 3,1 3,3l0 3 2 0c3,0 5,2 5,5l0 29c0,3 -2,5 -5,5l-29 0c-3,0 -5,-2 -5,-5l0 -29c0,-3 2,-5 5,-5l2 0 0 -3c0,-2 2,-3 3,-3 2,0 3,1 3,3l0 3 0 0zm13 2l-13 0 0 2c0,0 0,1 -1,1l-3 0c-1,0 -2,-1 -2,-1l0 -2 -2 0c-2,0 -3,2 -3,3l0 3 35 0 0 -3c0,-1 -1,-3 -3,-3l-2 0 0 2c0,0 -1,1 -2,1l-3 0c-1,0 -1,-1 -1,-1l0 -2 0 0zm3 -6c-1,0 -1,1 -1,1l0 6 1 0 0 -6c0,0 0,-1 0,-1l0 0zm-19 0c0,0 0,1 0,1l0 6 1 0 0 -6c0,0 0,-1 -1,-1l0 0zm27 14l-35 0 0 24c0,2 1,3 3,3l29 0c2,0 3,-1 3,-3l0 -24z"/>
   <path class="fil1" d="M16 20c1,0 2,1 2,2 0,1 -1,2 -2,2 -1,0 -2,-1 -2,-2 0,-1 1,-2 2,-2z"/>
   <path class="fil1" d="M23 20c1,0 2,1 2,2 0,1 -1,2 -2,2 -1,0 -2,-1 -2,-2 0,-1 1,-2 2,-2z"/>
   <path class="fil1" d="M30 20c1,0 2,1 2,2 0,1 -1,2 -2,2 -1,0 -2,-1 -2,-2 0,-1 1,-2 2,-2z"/>
   <path class="fil1" d="M9 28c1,0 1,1 1,2 0,1 0,1 -1,1 -1,0 -2,0 -2,-1 0,-1 1,-2 2,-2z"/>
   <path class="fil1" d="M9 35c1,0 1,1 1,2 0,1 0,2 -1,2 -1,0 -2,-1 -2,-2 0,-1 1,-2 2,-2z"/>
   <path class="fil1" d="M16 28c1,0 2,1 2,2 0,1 -1,1 -2,1 -1,0 -2,0 -2,-1 0,-1 1,-2 2,-2z"/>
   <path class="fil1" d="M16 35c1,0 2,1 2,2 0,1 -1,2 -2,2 -1,0 -2,-1 -2,-2 0,-1 1,-2 2,-2z"/>
   <path class="fil1" d="M23 28c1,0 2,1 2,2 0,1 -1,1 -2,1 -1,0 -2,0 -2,-1 0,-1 1,-2 2,-2z"/>
   <path class="fil1" d="M23 35c1,0 2,1 2,2 0,1 -1,2 -2,2 -1,0 -2,-1 -2,-2 0,-1 1,-2 2,-2z"/>
   <path class="fil1" d="M30 28c1,0 2,1 2,2 0,1 -1,1 -2,1 -1,0 -2,0 -2,-1 0,-1 1,-2 2,-2z"/>
  </g>
 </g>
</svg>
