<?xml version="1.0" encoding="UTF-8"?>
<!DOCTYPE svg PUBLIC "-//W3C//DTD SVG 1.1//EN" "http://www.w3.org/Graphics/SVG/1.1/DTD/svg11.dtd">
<!-- Creator: CorelDRAW X8 -->
<svg xmlns="http://www.w3.org/2000/svg" xml:space="preserve" width="43px" height="45px" version="1.1" style="shape-rendering:geometricPrecision; text-rendering:geometricPrecision; image-rendering:optimizeQuality; fill-rule:evenodd; clip-rule:evenodd"
viewBox="0 0 43 46"
 xmlns:xlink="http://www.w3.org/1999/xlink">
 <defs>
  <style type="text/css">
   <![CDATA[
    .fil0 {fill:#727271}
   ]]>
  </style>
 </defs>
 <g id="Layer_x0020_1">
  <metadata id="CorelCorpID_0Corel-Layer"/>
  <g id="_1483028799664">
   <g>
    <path class="fil0" d="M18 6l0 3 7 0 0 -3 -7 0zm12 31l0 -2c0,-2 2,-4 4,-4l2 0c2,0 4,2 4,4l0 7c0,2 -2,4 -4,4l-2 0c-2,0 -4,-2 -4,-4l0 -2 -2 0c0,1 -1,2 -3,2l-7 0c-2,0 -3,-1 -3,-2l-2 0 0 2c0,2 -2,4 -4,4l-2 0c-2,0 -4,-2 -4,-4l0 -7c0,-2 2,-4 4,-4l2 0c2,0 4,2 4,4l0 2 2 0c0,-1 1,-2 3,-2l2 0 0 -24 -2 0c-2,0 -3,-1 -3,-2l-2 0 0 2c0,2 -2,4 -4,4l-2 0c-2,0 -4,-2 -4,-4l0 -7c0,-2 2,-4 4,-4l2 0c2,0 4,2 4,4l0 2 2 0c0,-1 1,-2 3,-2l7 0c2,0 3,1 3,2l2 0 0 -2c0,-2 2,-4 4,-4l2 0c2,0 4,2 4,4l0 7c0,2 -2,4 -4,4l-2 0c-2,0 -4,-2 -4,-4l0 -2 -2 0c0,1 -1,2 -3,2l-2 0 0 24 2 0c2,0 3,1 3,2l2 0zm-12 0l0 3 7 0 0 -3 -7 0zm-11 -35c-1,0 -2,1 -2,2l0 7c0,1 1,1 2,1l2 0c1,0 1,0 1,-1l0 -7c0,-1 0,-2 -1,-2l-2 0zm27 0c-1,0 -1,1 -1,2l0 7c0,1 0,1 1,1l2 0c1,0 2,0 2,-1l0 -7c0,-1 -1,-2 -2,-2l-2 0zm-27 31c-1,0 -2,1 -2,2l0 7c0,1 1,1 2,1l2 0c1,0 1,0 1,-1l0 -7c0,-1 0,-2 -1,-2l-2 0zm27 0c-1,0 -1,1 -1,2l0 7c0,1 0,1 1,1l2 0c1,0 2,0 2,-1l0 -7c0,-1 -1,-2 -2,-2l-2 0z"/>
   </g>
  </g>
 </g>
</svg>
