<?xml version="1.0" encoding="UTF-8"?>
<!DOCTYPE svg PUBLIC "-//W3C//DTD SVG 1.1//EN" "http://www.w3.org/Graphics/SVG/1.1/DTD/svg11.dtd">
<!-- Creator: CorelDRAW X8 -->
<svg xmlns="http://www.w3.org/2000/svg" xml:space="preserve" width="27px" height="25px" version="1.1" style="shape-rendering:geometricPrecision; text-rendering:geometricPrecision; image-rendering:optimizeQuality; fill-rule:evenodd; clip-rule:evenodd"
viewBox="0 0 27 25"
 xmlns:xlink="http://www.w3.org/1999/xlink">
 <defs>
  <style type="text/css">
   <![CDATA[
    .fil0 {fill:#B1413F;fill-rule:nonzero}
   ]]>
  </style>
 </defs>
 <g id="Layer_x0020_1">
  <metadata id="CorelCorpID_0Corel-Layer"/>
  <g id="_2115907762688">
   <path class="fil0" d="M15 22c1,0 2,0 2,1 0,0 0,1 -1,1l0 0c-3,1 -6,1 -9,-1 -3,-1 -5,-4 -6,-7l0 0c-1,-3 0,-6 1,-9 1,-3 4,-5 7,-6l0 0c3,-1 7,0 9,1 3,1 5,4 6,7l0 0c0,1 0,1 -1,2 0,0 -1,-1 -1,-1 -1,-3 -3,-5 -5,-6 -2,-1 -5,-1 -7,-1l0 0c-3,1 -5,3 -6,5 -1,2 -1,5 -1,7l0 0c1,3 3,5 5,6 2,1 5,2 7,1l0 0z"/>
   <path class="fil0" d="M18 10c-1,-1 -1,-1 -1,-2 0,0 1,0 1,0l5 1 2 -4c0,-1 0,-1 1,-1 0,1 1,1 0,2l-2 5c0,0 0,1 -1,1l-5 -2z"/>
  </g>
 </g>
</svg>
